<svg xmlns="http://www.w3.org/2000/svg" xmlns:xlink="http://www.w3.org/1999/xlink" width="1366" zoomAndPan="magnify" viewBox="0 0 1024.5 935.249971" height="768" preserveAspectRatio="xMidYMid meet" version="1.0"><defs><filter x="0%" y="0%" width="100%" height="100%" id="7e615cf6a5"><feColorMatrix values="0 0 0 0 1 0 0 0 0 1 0 0 0 0 1 0 0 0 1 0" color-interpolation-filters="sRGB"/></filter><g/><clipPath id="ee068d96d7"><path d="M 151.683594 116.78125 L 939.03125 116.78125 L 939.03125 117.441406 L 151.683594 117.441406 Z M 151.683594 116.78125 " clip-rule="nonzero"/></clipPath><mask id="77e7f9271d"><g filter="url(#7e615cf6a5)"><rect x="-102.45" width="1229.4" fill="#000000" y="-93.524997" height="1122.299966" fill-opacity="0.2471"/></g></mask><clipPath id="028d1ac814"><path d="M 0.683594 0.78125 L 788.03125 0.78125 L 788.03125 1.441406 L 0.683594 1.441406 Z M 0.683594 0.78125 " clip-rule="nonzero"/></clipPath><clipPath id="809e47c3f2"><rect x="0" width="789" y="0" height="2"/></clipPath><clipPath id="cbab530970"><path d="M 151.683594 273.125 L 939.03125 273.125 L 939.03125 273.785156 L 151.683594 273.785156 Z M 151.683594 273.125 " clip-rule="nonzero"/></clipPath><mask id="14d7b51507"><g filter="url(#7e615cf6a5)"><rect x="-102.45" width="1229.4" fill="#000000" y="-93.524997" height="1122.299966" fill-opacity="0.2471"/></g></mask><clipPath id="86cd11972f"><path d="M 0.683594 0.125 L 788.03125 0.125 L 788.03125 0.785156 L 0.683594 0.785156 Z M 0.683594 0.125 " clip-rule="nonzero"/></clipPath><clipPath id="163293623b"><rect x="0" width="789" y="0" height="1"/></clipPath><clipPath id="78c6062407"><path d="M 151.683594 429.46875 L 939.03125 429.46875 L 939.03125 430.128906 L 151.683594 430.128906 Z M 151.683594 429.46875 " clip-rule="nonzero"/></clipPath><mask id="0910f0629d"><g filter="url(#7e615cf6a5)"><rect x="-102.45" width="1229.4" fill="#000000" y="-93.524997" height="1122.299966" fill-opacity="0.2471"/></g></mask><clipPath id="61b091d9ce"><path d="M 0.683594 0.46875 L 788.03125 0.46875 L 788.03125 1.128906 L 0.683594 1.128906 Z M 0.683594 0.46875 " clip-rule="nonzero"/></clipPath><clipPath id="17b5b82ba7"><rect x="0" width="789" y="0" height="2"/></clipPath><clipPath id="0f60770cf2"><path d="M 151.683594 585.8125 L 939.03125 585.8125 L 939.03125 586.472656 L 151.683594 586.472656 Z M 151.683594 585.8125 " clip-rule="nonzero"/></clipPath><mask id="39a8ae8a04"><g filter="url(#7e615cf6a5)"><rect x="-102.45" width="1229.4" fill="#000000" y="-93.524997" height="1122.299966" fill-opacity="0.2471"/></g></mask><clipPath id="abc8f12bcb"><path d="M 0.683594 0.8125 L 788.03125 0.8125 L 788.03125 1.472656 L 0.683594 1.472656 Z M 0.683594 0.8125 " clip-rule="nonzero"/></clipPath><clipPath id="3305090305"><rect x="0" width="789" y="0" height="2"/></clipPath><clipPath id="a29b81dc3c"><path d="M 151.683594 742.160156 L 939.03125 742.160156 L 939.03125 742.820312 L 151.683594 742.820312 Z M 151.683594 742.160156 " clip-rule="nonzero"/></clipPath><mask id="252a51b6a6"><g filter="url(#7e615cf6a5)"><rect x="-102.45" width="1229.4" fill="#000000" y="-93.524997" height="1122.299966" fill-opacity="0.6"/></g></mask><clipPath id="ec89bacb85"><path d="M 0.683594 0.160156 L 788.03125 0.160156 L 788.03125 0.820312 L 0.683594 0.820312 Z M 0.683594 0.160156 " clip-rule="nonzero"/></clipPath><clipPath id="46069703ec"><rect x="0" width="789" y="0" height="1"/></clipPath><clipPath id="8325e53aa3"><path d="M 151.683594 185.398438 L 230.898438 185.398438 L 230.898438 742.542969 L 151.683594 742.542969 Z M 151.683594 185.398438 " clip-rule="nonzero"/></clipPath><clipPath id="6043de9bb7"><path d="M 151.683594 742.488281 L 151.683594 197.464844 C 151.683594 190.90625 157 185.589844 163.558594 185.589844 L 218.976562 185.589844 C 222.125 185.589844 225.144531 186.84375 227.375 189.070312 C 229.601562 191.296875 230.851562 194.316406 230.851562 197.464844 L 230.851562 742.488281 L 151.683594 742.488281 " clip-rule="nonzero"/></clipPath><clipPath id="5e5d627023"><path d="M 698.265625 129.289062 L 778.140625 129.289062 L 778.140625 742.542969 L 698.265625 742.542969 Z M 698.265625 129.289062 " clip-rule="nonzero"/></clipPath><clipPath id="aceef70458"><path d="M 698.890625 742.488281 L 698.890625 141.164062 C 698.890625 134.605469 704.207031 129.289062 710.765625 129.289062 L 766.183594 129.289062 C 769.332031 129.289062 772.351562 130.539062 774.578125 132.769531 C 776.804688 134.996094 778.058594 138.015625 778.058594 141.164062 L 778.058594 742.488281 L 698.890625 742.488281 " clip-rule="nonzero"/></clipPath><clipPath id="8a893f7546"><path d="M 232 185.398438 L 311.433594 185.398438 L 311.433594 742.542969 L 232 742.542969 Z M 232 185.398438 " clip-rule="nonzero"/></clipPath><clipPath id="656af67786"><path d="M 232.171875 742.488281 L 232.171875 197.464844 C 232.171875 190.90625 237.488281 185.589844 244.046875 185.589844 L 299.464844 185.589844 C 302.613281 185.589844 305.632812 186.84375 307.859375 189.070312 C 310.085938 191.296875 311.339844 194.316406 311.339844 197.464844 L 311.339844 742.488281 L 232.171875 742.488281 " clip-rule="nonzero"/></clipPath><clipPath id="6b9337eb6e"><path d="M 779 191.339844 L 858.675781 191.339844 L 858.675781 742.542969 L 779 742.542969 Z M 779 191.339844 " clip-rule="nonzero"/></clipPath><clipPath id="ea7543a5ca"><path d="M 779.378906 742.488281 L 779.378906 203.734375 C 779.378906 200.585938 780.628906 197.566406 782.855469 195.339844 C 785.082031 193.113281 788.101562 191.859375 791.253906 191.859375 L 846.667969 191.859375 C 849.820312 191.859375 852.839844 193.113281 855.066406 195.339844 C 857.292969 197.566406 858.542969 200.585938 858.542969 203.734375 L 858.542969 742.488281 L 779.378906 742.488281 " clip-rule="nonzero"/></clipPath><clipPath id="cc67917bb9"><path d="M 312.09375 154 L 391.96875 154 L 391.96875 742.542969 L 312.09375 742.542969 Z M 312.09375 154 " clip-rule="nonzero"/></clipPath><clipPath id="d27ce8d62b"><path d="M 312.660156 742.488281 L 312.660156 166.179688 C 312.660156 159.621094 317.976562 154.304688 324.535156 154.304688 L 379.949219 154.304688 C 383.101562 154.304688 386.121094 155.554688 388.347656 157.78125 C 390.574219 160.011719 391.824219 163.03125 391.824219 166.179688 L 391.824219 742.488281 L 312.660156 742.488281 " clip-rule="nonzero"/></clipPath><clipPath id="ae93814fab"><path d="M 859.335938 229 L 939.210938 229 L 939.210938 742.542969 L 859.335938 742.542969 Z M 859.335938 229 " clip-rule="nonzero"/></clipPath><clipPath id="6d14969f9a"><path d="M 859.863281 742.488281 L 859.863281 241.277344 C 859.863281 238.128906 861.117188 235.109375 863.34375 232.882812 C 865.570312 230.65625 868.589844 229.402344 871.738281 229.402344 L 927.15625 229.402344 C 930.304688 229.402344 933.328125 230.65625 935.554688 232.882812 C 937.78125 235.109375 939.03125 238.128906 939.03125 241.277344 L 939.03125 742.488281 L 859.863281 742.488281 " clip-rule="nonzero"/></clipPath></defs><g clip-path="url(#ee068d96d7)"><g mask="url(#77e7f9271d)"><g transform="matrix(1, 0, 0, 1, 151, 116)"><g clip-path="url(#809e47c3f2)"><g clip-path="url(#028d1ac814)"><path fill="#000000" d="M 0.683594 0.78125 L 788.210938 0.78125 L 788.210938 626.578125 L 0.683594 626.578125 Z M 0.683594 0.78125 " fill-opacity="1" fill-rule="nonzero"/></g></g></g></g></g><g clip-path="url(#cbab530970)"><g mask="url(#14d7b51507)"><g transform="matrix(1, 0, 0, 1, 151, 273)"><g clip-path="url(#163293623b)"><g clip-path="url(#86cd11972f)"><path fill="#000000" d="M 0.683594 -156.21875 L 788.210938 -156.21875 L 788.210938 469.578125 L 0.683594 469.578125 Z M 0.683594 -156.21875 " fill-opacity="1" fill-rule="nonzero"/></g></g></g></g></g><g clip-path="url(#78c6062407)"><g mask="url(#0910f0629d)"><g transform="matrix(1, 0, 0, 1, 151, 429)"><g clip-path="url(#17b5b82ba7)"><g clip-path="url(#61b091d9ce)"><path fill="#000000" d="M 0.683594 -312.21875 L 788.210938 -312.21875 L 788.210938 313.578125 L 0.683594 313.578125 Z M 0.683594 -312.21875 " fill-opacity="1" fill-rule="nonzero"/></g></g></g></g></g><g clip-path="url(#0f60770cf2)"><g mask="url(#39a8ae8a04)"><g transform="matrix(1, 0, 0, 1, 151, 585)"><g clip-path="url(#3305090305)"><g clip-path="url(#abc8f12bcb)"><path fill="#000000" d="M 0.683594 -468.21875 L 788.210938 -468.21875 L 788.210938 157.578125 L 0.683594 157.578125 Z M 0.683594 -468.21875 " fill-opacity="1" fill-rule="nonzero"/></g></g></g></g></g><g clip-path="url(#a29b81dc3c)"><g mask="url(#252a51b6a6)"><g transform="matrix(1, 0, 0, 1, 151, 742)"><g clip-path="url(#46069703ec)"><g clip-path="url(#ec89bacb85)"><path fill="#000000" d="M 0.683594 -625.21875 L 788.210938 -625.21875 L 788.210938 0.578125 L 0.683594 0.578125 Z M 0.683594 -625.21875 " fill-opacity="1" fill-rule="nonzero"/></g></g></g></g></g><g fill="#000000" fill-opacity="1"><g transform="translate(85.499127, 126.35391)"><g><path d="M 1.25 0 L 1.25 -1.71875 L 6.0625 -1.71875 L 6.0625 -15.1875 L 5.78125 -15.265625 C 5 -14.878906 4.316406 -14.582031 3.734375 -14.375 C 3.148438 -14.164062 2.398438 -13.96875 1.484375 -13.78125 L 1.484375 -15.6875 C 2.390625 -15.875 3.285156 -16.128906 4.171875 -16.453125 C 5.066406 -16.785156 5.875 -17.175781 6.59375 -17.625 L 8.09375 -17.625 L 8.09375 -1.71875 L 12.390625 -1.71875 L 12.390625 0 Z M 1.25 0 "/></g></g></g><g fill="#000000" fill-opacity="1"><g transform="translate(98.635759, 126.35391)"><g><path d="M 8.671875 0.25 C 7.367188 0.25 6.203125 -0.0546875 5.171875 -0.671875 C 4.148438 -1.296875 3.332031 -2.285156 2.71875 -3.640625 C 2.113281 -4.992188 1.8125 -6.71875 1.8125 -8.8125 C 1.8125 -10.90625 2.113281 -12.628906 2.71875 -13.984375 C 3.332031 -15.335938 4.148438 -16.320312 5.171875 -16.9375 C 6.203125 -17.5625 7.367188 -17.875 8.671875 -17.875 C 9.960938 -17.875 11.117188 -17.5625 12.140625 -16.9375 C 13.171875 -16.320312 13.988281 -15.335938 14.59375 -13.984375 C 15.207031 -12.628906 15.515625 -10.90625 15.515625 -8.8125 C 15.515625 -6.71875 15.207031 -4.992188 14.59375 -3.640625 C 13.988281 -2.285156 13.171875 -1.296875 12.140625 -0.671875 C 11.117188 -0.0546875 9.960938 0.25 8.671875 0.25 Z M 8.671875 -1.65625 C 10.203125 -1.65625 11.363281 -2.207031 12.15625 -3.3125 C 12.945312 -4.425781 13.34375 -6.257812 13.34375 -8.8125 C 13.34375 -11.363281 12.945312 -13.191406 12.15625 -14.296875 C 11.363281 -15.398438 10.203125 -15.953125 8.671875 -15.953125 C 7.648438 -15.953125 6.796875 -15.71875 6.109375 -15.25 C 5.421875 -14.789062 4.894531 -14.035156 4.53125 -12.984375 C 4.164062 -11.929688 3.984375 -10.539062 3.984375 -8.8125 C 3.984375 -7.082031 4.164062 -5.691406 4.53125 -4.640625 C 4.894531 -3.585938 5.421875 -2.828125 6.109375 -2.359375 C 6.796875 -1.890625 7.648438 -1.65625 8.671875 -1.65625 Z M 8.671875 -1.65625 "/></g></g></g><g fill="#000000" fill-opacity="1"><g transform="translate(115.966471, 126.35391)"><g><path d="M 8.671875 0.25 C 7.367188 0.25 6.203125 -0.0546875 5.171875 -0.671875 C 4.148438 -1.296875 3.332031 -2.285156 2.71875 -3.640625 C 2.113281 -4.992188 1.8125 -6.71875 1.8125 -8.8125 C 1.8125 -10.90625 2.113281 -12.628906 2.71875 -13.984375 C 3.332031 -15.335938 4.148438 -16.320312 5.171875 -16.9375 C 6.203125 -17.5625 7.367188 -17.875 8.671875 -17.875 C 9.960938 -17.875 11.117188 -17.5625 12.140625 -16.9375 C 13.171875 -16.320312 13.988281 -15.335938 14.59375 -13.984375 C 15.207031 -12.628906 15.515625 -10.90625 15.515625 -8.8125 C 15.515625 -6.71875 15.207031 -4.992188 14.59375 -3.640625 C 13.988281 -2.285156 13.171875 -1.296875 12.140625 -0.671875 C 11.117188 -0.0546875 9.960938 0.25 8.671875 0.25 Z M 8.671875 -1.65625 C 10.203125 -1.65625 11.363281 -2.207031 12.15625 -3.3125 C 12.945312 -4.425781 13.34375 -6.257812 13.34375 -8.8125 C 13.34375 -11.363281 12.945312 -13.191406 12.15625 -14.296875 C 11.363281 -15.398438 10.203125 -15.953125 8.671875 -15.953125 C 7.648438 -15.953125 6.796875 -15.71875 6.109375 -15.25 C 5.421875 -14.789062 4.894531 -14.035156 4.53125 -12.984375 C 4.164062 -11.929688 3.984375 -10.539062 3.984375 -8.8125 C 3.984375 -7.082031 4.164062 -5.691406 4.53125 -4.640625 C 4.894531 -3.585938 5.421875 -2.828125 6.109375 -2.359375 C 6.796875 -1.890625 7.648438 -1.65625 8.671875 -1.65625 Z M 8.671875 -1.65625 "/></g></g></g><g fill="#000000" fill-opacity="1"><g transform="translate(133.296146, 126.35391)"><g/></g></g><g fill="#000000" fill-opacity="1"><g transform="translate(106.55085, 282.697932)"><g><path d="M 4.78125 0 L 2.765625 0 L 9.3125 -15.609375 L 9.25 -15.859375 L 0.65625 -15.859375 L 0.65625 -17.625 L 11.40625 -17.625 L 11.40625 -15.71875 Z M 4.78125 0 "/></g></g></g><g fill="#000000" fill-opacity="1"><g transform="translate(118.723325, 282.697932)"><g><path d="M 7.25 0.25 C 5.601562 0.25 4.285156 -0.113281 3.296875 -0.84375 C 2.316406 -1.570312 1.679688 -2.609375 1.390625 -3.953125 L 2.921875 -4.65625 L 3.1875 -4.609375 C 3.394531 -3.921875 3.660156 -3.359375 3.984375 -2.921875 C 4.304688 -2.492188 4.734375 -2.164062 5.265625 -1.9375 C 5.796875 -1.71875 6.457031 -1.609375 7.25 -1.609375 C 8.445312 -1.609375 9.375 -1.960938 10.03125 -2.671875 C 10.695312 -3.390625 11.03125 -4.425781 11.03125 -5.78125 C 11.03125 -7.164062 10.703125 -8.21875 10.046875 -8.9375 C 9.398438 -9.65625 8.503906 -10.015625 7.359375 -10.015625 C 6.484375 -10.015625 5.769531 -9.835938 5.21875 -9.484375 C 4.675781 -9.128906 4.191406 -8.585938 3.765625 -7.859375 L 2.109375 -8 L 2.453125 -17.625 L 12.3125 -17.625 L 12.3125 -15.859375 L 4.25 -15.859375 L 4.046875 -10.015625 L 4.296875 -9.96875 C 4.722656 -10.582031 5.234375 -11.039062 5.828125 -11.34375 C 6.421875 -11.644531 7.140625 -11.796875 7.984375 -11.796875 C 9.035156 -11.796875 9.953125 -11.554688 10.734375 -11.078125 C 11.515625 -10.609375 12.117188 -9.921875 12.546875 -9.015625 C 12.984375 -8.117188 13.203125 -7.039062 13.203125 -5.78125 C 13.203125 -4.53125 12.953125 -3.453125 12.453125 -2.546875 C 11.960938 -1.640625 11.269531 -0.945312 10.375 -0.46875 C 9.476562 0.0078125 8.4375 0.25 7.25 0.25 Z M 7.25 0.25 "/></g></g></g><g fill="#000000" fill-opacity="1"><g transform="translate(133.296139, 282.697932)"><g/></g></g><g fill="#000000" fill-opacity="1"><g transform="translate(101.383332, 439.042004)"><g><path d="M 7.25 0.25 C 5.601562 0.25 4.285156 -0.113281 3.296875 -0.84375 C 2.316406 -1.570312 1.679688 -2.609375 1.390625 -3.953125 L 2.921875 -4.65625 L 3.1875 -4.609375 C 3.394531 -3.921875 3.660156 -3.359375 3.984375 -2.921875 C 4.304688 -2.492188 4.734375 -2.164062 5.265625 -1.9375 C 5.796875 -1.71875 6.457031 -1.609375 7.25 -1.609375 C 8.445312 -1.609375 9.375 -1.960938 10.03125 -2.671875 C 10.695312 -3.390625 11.03125 -4.425781 11.03125 -5.78125 C 11.03125 -7.164062 10.703125 -8.21875 10.046875 -8.9375 C 9.398438 -9.65625 8.503906 -10.015625 7.359375 -10.015625 C 6.484375 -10.015625 5.769531 -9.835938 5.21875 -9.484375 C 4.675781 -9.128906 4.191406 -8.585938 3.765625 -7.859375 L 2.109375 -8 L 2.453125 -17.625 L 12.3125 -17.625 L 12.3125 -15.859375 L 4.25 -15.859375 L 4.046875 -10.015625 L 4.296875 -9.96875 C 4.722656 -10.582031 5.234375 -11.039062 5.828125 -11.34375 C 6.421875 -11.644531 7.140625 -11.796875 7.984375 -11.796875 C 9.035156 -11.796875 9.953125 -11.554688 10.734375 -11.078125 C 11.515625 -10.609375 12.117188 -9.921875 12.546875 -9.015625 C 12.984375 -8.117188 13.203125 -7.039062 13.203125 -5.78125 C 13.203125 -4.53125 12.953125 -3.453125 12.453125 -2.546875 C 11.960938 -1.640625 11.269531 -0.945312 10.375 -0.46875 C 9.476562 0.0078125 8.4375 0.25 7.25 0.25 Z M 7.25 0.25 "/></g></g></g><g fill="#000000" fill-opacity="1"><g transform="translate(115.966199, 439.042004)"><g><path d="M 8.671875 0.25 C 7.367188 0.25 6.203125 -0.0546875 5.171875 -0.671875 C 4.148438 -1.296875 3.332031 -2.285156 2.71875 -3.640625 C 2.113281 -4.992188 1.8125 -6.71875 1.8125 -8.8125 C 1.8125 -10.90625 2.113281 -12.628906 2.71875 -13.984375 C 3.332031 -15.335938 4.148438 -16.320312 5.171875 -16.9375 C 6.203125 -17.5625 7.367188 -17.875 8.671875 -17.875 C 9.960938 -17.875 11.117188 -17.5625 12.140625 -16.9375 C 13.171875 -16.320312 13.988281 -15.335938 14.59375 -13.984375 C 15.207031 -12.628906 15.515625 -10.90625 15.515625 -8.8125 C 15.515625 -6.71875 15.207031 -4.992188 14.59375 -3.640625 C 13.988281 -2.285156 13.171875 -1.296875 12.140625 -0.671875 C 11.117188 -0.0546875 9.960938 0.25 8.671875 0.25 Z M 8.671875 -1.65625 C 10.203125 -1.65625 11.363281 -2.207031 12.15625 -3.3125 C 12.945312 -4.425781 13.34375 -6.257812 13.34375 -8.8125 C 13.34375 -11.363281 12.945312 -13.191406 12.15625 -14.296875 C 11.363281 -15.398438 10.203125 -15.953125 8.671875 -15.953125 C 7.648438 -15.953125 6.796875 -15.71875 6.109375 -15.25 C 5.421875 -14.789062 4.894531 -14.035156 4.53125 -12.984375 C 4.164062 -11.929688 3.984375 -10.539062 3.984375 -8.8125 C 3.984375 -7.082031 4.164062 -5.691406 4.53125 -4.640625 C 4.894531 -3.585938 5.421875 -2.828125 6.109375 -2.359375 C 6.796875 -1.890625 7.648438 -1.65625 8.671875 -1.65625 Z M 8.671875 -1.65625 "/></g></g></g><g fill="#000000" fill-opacity="1"><g transform="translate(133.296145, 439.042004)"><g/></g></g><g fill="#000000" fill-opacity="1"><g transform="translate(105.168718, 595.386032)"><g><path d="M 1.0625 -0.8125 C 1.0625 -1.78125 1.164062 -2.5625 1.375 -3.15625 C 1.59375 -3.75 1.957031 -4.300781 2.46875 -4.8125 C 2.988281 -5.332031 3.8125 -6.003906 4.9375 -6.828125 L 6.875 -8.234375 C 7.582031 -8.753906 8.160156 -9.234375 8.609375 -9.671875 C 9.066406 -10.117188 9.425781 -10.597656 9.6875 -11.109375 C 9.945312 -11.628906 10.078125 -12.210938 10.078125 -12.859375 C 10.078125 -13.898438 9.796875 -14.6875 9.234375 -15.21875 C 8.679688 -15.75 7.816406 -16.015625 6.640625 -16.015625 C 5.710938 -16.015625 4.882812 -15.796875 4.15625 -15.359375 C 3.4375 -14.929688 2.859375 -14.320312 2.421875 -13.53125 L 2.140625 -13.484375 L 0.90625 -14.78125 C 1.5 -15.738281 2.28125 -16.492188 3.25 -17.046875 C 4.21875 -17.597656 5.347656 -17.875 6.640625 -17.875 C 7.890625 -17.875 8.925781 -17.660156 9.75 -17.234375 C 10.582031 -16.804688 11.195312 -16.21875 11.59375 -15.46875 C 11.988281 -14.71875 12.1875 -13.847656 12.1875 -12.859375 C 12.1875 -12.078125 12.019531 -11.34375 11.6875 -10.65625 C 11.363281 -9.96875 10.898438 -9.320312 10.296875 -8.71875 C 9.691406 -8.125 8.9375 -7.492188 8.03125 -6.828125 L 6.0625 -5.390625 C 5.332031 -4.847656 4.769531 -4.390625 4.375 -4.015625 C 3.976562 -3.640625 3.691406 -3.269531 3.515625 -2.90625 C 3.335938 -2.550781 3.25 -2.15625 3.25 -1.71875 L 12.1875 -1.71875 L 12.1875 0 L 1.0625 0 Z M 1.0625 -0.8125 "/></g></g></g><g fill="#000000" fill-opacity="1"><g transform="translate(118.715116, 595.386032)"><g><path d="M 7.25 0.25 C 5.601562 0.25 4.285156 -0.113281 3.296875 -0.84375 C 2.316406 -1.570312 1.679688 -2.609375 1.390625 -3.953125 L 2.921875 -4.65625 L 3.1875 -4.609375 C 3.394531 -3.921875 3.660156 -3.359375 3.984375 -2.921875 C 4.304688 -2.492188 4.734375 -2.164062 5.265625 -1.9375 C 5.796875 -1.71875 6.457031 -1.609375 7.25 -1.609375 C 8.445312 -1.609375 9.375 -1.960938 10.03125 -2.671875 C 10.695312 -3.390625 11.03125 -4.425781 11.03125 -5.78125 C 11.03125 -7.164062 10.703125 -8.21875 10.046875 -8.9375 C 9.398438 -9.65625 8.503906 -10.015625 7.359375 -10.015625 C 6.484375 -10.015625 5.769531 -9.835938 5.21875 -9.484375 C 4.675781 -9.128906 4.191406 -8.585938 3.765625 -7.859375 L 2.109375 -8 L 2.453125 -17.625 L 12.3125 -17.625 L 12.3125 -15.859375 L 4.25 -15.859375 L 4.046875 -10.015625 L 4.296875 -9.96875 C 4.722656 -10.582031 5.234375 -11.039062 5.828125 -11.34375 C 6.421875 -11.644531 7.140625 -11.796875 7.984375 -11.796875 C 9.035156 -11.796875 9.953125 -11.554688 10.734375 -11.078125 C 11.515625 -10.609375 12.117188 -9.921875 12.546875 -9.015625 C 12.984375 -8.117188 13.203125 -7.039062 13.203125 -5.78125 C 13.203125 -4.53125 12.953125 -3.453125 12.453125 -2.546875 C 11.960938 -1.640625 11.269531 -0.945312 10.375 -0.46875 C 9.476562 0.0078125 8.4375 0.25 7.25 0.25 Z M 7.25 0.25 "/></g></g></g><g fill="#000000" fill-opacity="1"><g transform="translate(133.296139, 595.386032)"><g/></g></g><g fill="#000000" fill-opacity="1"><g transform="translate(115.967924, 751.730037)"><g><path d="M 8.671875 0.25 C 7.367188 0.25 6.203125 -0.0546875 5.171875 -0.671875 C 4.148438 -1.296875 3.332031 -2.285156 2.71875 -3.640625 C 2.113281 -4.992188 1.8125 -6.71875 1.8125 -8.8125 C 1.8125 -10.90625 2.113281 -12.628906 2.71875 -13.984375 C 3.332031 -15.335938 4.148438 -16.320312 5.171875 -16.9375 C 6.203125 -17.5625 7.367188 -17.875 8.671875 -17.875 C 9.960938 -17.875 11.117188 -17.5625 12.140625 -16.9375 C 13.171875 -16.320312 13.988281 -15.335938 14.59375 -13.984375 C 15.207031 -12.628906 15.515625 -10.90625 15.515625 -8.8125 C 15.515625 -6.71875 15.207031 -4.992188 14.59375 -3.640625 C 13.988281 -2.285156 13.171875 -1.296875 12.140625 -0.671875 C 11.117188 -0.0546875 9.960938 0.25 8.671875 0.25 Z M 8.671875 -1.65625 C 10.203125 -1.65625 11.363281 -2.207031 12.15625 -3.3125 C 12.945312 -4.425781 13.34375 -6.257812 13.34375 -8.8125 C 13.34375 -11.363281 12.945312 -13.191406 12.15625 -14.296875 C 11.363281 -15.398438 10.203125 -15.953125 8.671875 -15.953125 C 7.648438 -15.953125 6.796875 -15.71875 6.109375 -15.25 C 5.421875 -14.789062 4.894531 -14.035156 4.53125 -12.984375 C 4.164062 -11.929688 3.984375 -10.539062 3.984375 -8.8125 C 3.984375 -7.082031 4.164062 -5.691406 4.53125 -4.640625 C 4.894531 -3.585938 5.421875 -2.828125 6.109375 -2.359375 C 6.796875 -1.890625 7.648438 -1.65625 8.671875 -1.65625 Z M 8.671875 -1.65625 "/></g></g></g><g fill="#000000" fill-opacity="1"><g transform="translate(133.296149, 751.730037)"><g/></g></g><g clip-path="url(#8325e53aa3)"><g clip-path="url(#6043de9bb7)"><path fill="#e66ea5" d="M 151.683594 129.289062 L 939.210938 129.289062 L 939.210938 742.542969 L 151.683594 742.542969 Z M 151.683594 129.289062 " fill-opacity="1" fill-rule="nonzero"/></g></g><g clip-path="url(#5e5d627023)"><g clip-path="url(#aceef70458)"><path fill="#e66ea5" d="M 151.683594 129.289062 L 939.210938 129.289062 L 939.210938 742.542969 L 151.683594 742.542969 Z M 151.683594 129.289062 " fill-opacity="1" fill-rule="nonzero"/></g></g><g clip-path="url(#8a893f7546)"><g clip-path="url(#656af67786)"><path fill="#33c3e3" d="M 151.683594 129.289062 L 939.210938 129.289062 L 939.210938 742.542969 L 151.683594 742.542969 Z M 151.683594 129.289062 " fill-opacity="1" fill-rule="nonzero"/></g></g><g clip-path="url(#6b9337eb6e)"><g clip-path="url(#ea7543a5ca)"><path fill="#33c3e3" d="M 151.683594 129.289062 L 939.210938 129.289062 L 939.210938 742.542969 L 151.683594 742.542969 Z M 151.683594 129.289062 " fill-opacity="1" fill-rule="nonzero"/></g></g><g clip-path="url(#cc67917bb9)"><g clip-path="url(#d27ce8d62b)"><path fill="#a15a8b" d="M 151.683594 129.289062 L 939.210938 129.289062 L 939.210938 742.542969 L 151.683594 742.542969 Z M 151.683594 129.289062 " fill-opacity="1" fill-rule="nonzero"/></g></g><g clip-path="url(#ae93814fab)"><g clip-path="url(#6d14969f9a)"><path fill="#a15a8b" d="M 151.683594 129.289062 L 939.210938 129.289062 L 939.210938 742.542969 L 151.683594 742.542969 Z M 151.683594 129.289062 " fill-opacity="1" fill-rule="nonzero"/></g></g><g fill="#000000" fill-opacity="1"><g transform="translate(187.034953, 807.463226)"><g><path d="M 13.953125 -5.28125 C 13.953125 -3.539062 13.316406 -2.179688 12.046875 -1.203125 C 10.773438 -0.222656 9.050781 0.265625 6.875 0.265625 C 4.519531 0.265625 2.707031 -0.0351562 1.4375 -0.640625 L 1.4375 -2.875 C 2.257812 -2.53125 3.148438 -2.253906 4.109375 -2.046875 C 5.066406 -1.847656 6.019531 -1.75 6.96875 -1.75 C 8.5 -1.75 9.65625 -2.039062 10.4375 -2.625 C 11.21875 -3.207031 11.609375 -4.023438 11.609375 -5.078125 C 11.609375 -5.765625 11.46875 -6.328125 11.1875 -6.765625 C 10.914062 -7.203125 10.457031 -7.601562 9.8125 -7.96875 C 9.164062 -8.34375 8.179688 -8.769531 6.859375 -9.25 C 5.003906 -9.90625 3.679688 -10.6875 2.890625 -11.59375 C 2.097656 -12.5 1.703125 -13.679688 1.703125 -15.140625 C 1.703125 -16.671875 2.273438 -17.890625 3.421875 -18.796875 C 4.578125 -19.703125 6.101562 -20.15625 8 -20.15625 C 9.96875 -20.15625 11.785156 -19.796875 13.453125 -19.078125 L 12.71875 -17.0625 C 11.082031 -17.75 9.488281 -18.09375 7.9375 -18.09375 C 6.71875 -18.09375 5.757812 -17.828125 5.0625 -17.296875 C 4.375 -16.773438 4.03125 -16.050781 4.03125 -15.125 C 4.03125 -14.425781 4.15625 -13.859375 4.40625 -13.421875 C 4.664062 -12.984375 5.097656 -12.582031 5.703125 -12.21875 C 6.304688 -11.851562 7.226562 -11.445312 8.46875 -11 C 10.550781 -10.257812 11.984375 -9.460938 12.765625 -8.609375 C 13.554688 -7.753906 13.953125 -6.644531 13.953125 -5.28125 Z M 13.953125 -5.28125 "/></g></g><g transform="translate(202.313599, 807.463226)"><g><path d="M 7.203125 -1.59375 C 7.597656 -1.59375 7.984375 -1.617188 8.359375 -1.671875 C 8.734375 -1.734375 9.03125 -1.796875 9.25 -1.859375 L 9.25 -0.140625 C 9 -0.015625 8.632812 0.0820312 8.15625 0.15625 C 7.6875 0.226562 7.257812 0.265625 6.875 0.265625 C 4 0.265625 2.5625 -1.25 2.5625 -4.28125 L 2.5625 -13.140625 L 0.421875 -13.140625 L 0.421875 -14.234375 L 2.5625 -15.171875 L 3.5 -18.359375 L 4.8125 -18.359375 L 4.8125 -14.90625 L 9.140625 -14.90625 L 9.140625 -13.140625 L 4.8125 -13.140625 L 4.8125 -4.375 C 4.8125 -3.476562 5.023438 -2.789062 5.453125 -2.3125 C 5.878906 -1.832031 6.460938 -1.59375 7.203125 -1.59375 Z M 7.203125 -1.59375 "/></g></g><g transform="translate(212.141412, 807.463226)"><g><path d="M 11.5625 0 L 11.109375 -2.125 L 11 -2.125 C 10.257812 -1.1875 9.519531 -0.550781 8.78125 -0.21875 C 8.039062 0.101562 7.117188 0.265625 6.015625 0.265625 C 4.535156 0.265625 3.375 -0.113281 2.53125 -0.875 C 1.695312 -1.632812 1.28125 -2.71875 1.28125 -4.125 C 1.28125 -7.132812 3.6875 -8.707031 8.5 -8.84375 L 11.03125 -8.9375 L 11.03125 -9.859375 C 11.03125 -11.023438 10.773438 -11.882812 10.265625 -12.4375 C 9.765625 -13 8.960938 -13.28125 7.859375 -13.28125 C 6.617188 -13.28125 5.210938 -12.898438 3.640625 -12.140625 L 2.953125 -13.875 C 3.679688 -14.269531 4.484375 -14.578125 5.359375 -14.796875 C 6.234375 -15.023438 7.113281 -15.140625 8 -15.140625 C 9.769531 -15.140625 11.082031 -14.742188 11.9375 -13.953125 C 12.800781 -13.171875 13.234375 -11.910156 13.234375 -10.171875 L 13.234375 0 Z M 6.453125 -1.59375 C 7.859375 -1.59375 8.960938 -1.976562 9.765625 -2.75 C 10.566406 -3.519531 10.96875 -4.597656 10.96875 -5.984375 L 10.96875 -7.328125 L 8.71875 -7.234375 C 6.914062 -7.171875 5.617188 -6.890625 4.828125 -6.390625 C 4.035156 -5.898438 3.640625 -5.132812 3.640625 -4.09375 C 3.640625 -3.28125 3.882812 -2.660156 4.375 -2.234375 C 4.875 -1.804688 5.566406 -1.59375 6.453125 -1.59375 Z M 3.796875 -18.9375 C 3.796875 -19.40625 3.914062 -19.742188 4.15625 -19.953125 C 4.394531 -20.160156 4.679688 -20.265625 5.015625 -20.265625 C 5.359375 -20.265625 5.65625 -20.160156 5.90625 -19.953125 C 6.15625 -19.742188 6.28125 -19.40625 6.28125 -18.9375 C 6.28125 -18.488281 6.15625 -18.148438 5.90625 -17.921875 C 5.65625 -17.703125 5.359375 -17.59375 5.015625 -17.59375 C 4.679688 -17.59375 4.394531 -17.703125 4.15625 -17.921875 C 3.914062 -18.148438 3.796875 -18.488281 3.796875 -18.9375 Z M 8.96875 -18.9375 C 8.96875 -19.40625 9.085938 -19.742188 9.328125 -19.953125 C 9.566406 -20.160156 9.859375 -20.265625 10.203125 -20.265625 C 10.535156 -20.265625 10.828125 -20.160156 11.078125 -19.953125 C 11.328125 -19.742188 11.453125 -19.40625 11.453125 -18.9375 C 11.453125 -18.488281 11.328125 -18.148438 11.078125 -17.921875 C 10.828125 -17.703125 10.535156 -17.59375 10.203125 -17.59375 C 9.859375 -17.59375 9.566406 -17.703125 9.328125 -17.921875 C 9.085938 -18.148438 8.96875 -18.488281 8.96875 -18.9375 Z M 8.96875 -18.9375 "/></g></g><g transform="translate(227.623954, 807.463226)"><g><path d="M 9.1875 -15.171875 C 9.851562 -15.171875 10.445312 -15.117188 10.96875 -15.015625 L 10.65625 -12.921875 C 10.039062 -13.054688 9.5 -13.125 9.03125 -13.125 C 7.820312 -13.125 6.789062 -12.632812 5.9375 -11.65625 C 5.082031 -10.675781 4.65625 -9.457031 4.65625 -8 L 4.65625 0 L 2.390625 0 L 2.390625 -14.90625 L 4.25 -14.90625 L 4.515625 -12.140625 L 4.625 -12.140625 C 5.175781 -13.109375 5.84375 -13.851562 6.625 -14.375 C 7.40625 -14.90625 8.257812 -15.171875 9.1875 -15.171875 Z M 9.1875 -15.171875 "/></g></g><g transform="translate(238.987787, 807.463226)"><g><path d="M 4.625 -7.625 C 5.007812 -8.175781 5.601562 -8.898438 6.40625 -9.796875 L 11.21875 -14.90625 L 13.890625 -14.90625 L 7.859375 -8.546875 L 14.3125 0 L 11.578125 0 L 6.328125 -7.046875 L 4.625 -5.578125 L 4.625 0 L 2.390625 0 L 2.390625 -21.15625 L 4.625 -21.15625 L 4.625 -9.9375 C 4.625 -9.4375 4.585938 -8.664062 4.515625 -7.625 Z M 4.625 -7.625 "/></g></g><g transform="translate(253.600371, 807.463226)"><g><path d="M 4.515625 -14.90625 L 4.515625 -5.234375 C 4.515625 -4.015625 4.789062 -3.109375 5.34375 -2.515625 C 5.894531 -1.921875 6.757812 -1.625 7.9375 -1.625 C 9.5 -1.625 10.640625 -2.046875 11.359375 -2.890625 C 12.078125 -3.742188 12.4375 -5.132812 12.4375 -7.0625 L 12.4375 -14.90625 L 14.703125 -14.90625 L 14.703125 0 L 12.828125 0 L 12.515625 -2 L 12.390625 -2 C 11.921875 -1.257812 11.273438 -0.695312 10.453125 -0.3125 C 9.640625 0.0703125 8.707031 0.265625 7.65625 0.265625 C 5.84375 0.265625 4.484375 -0.160156 3.578125 -1.015625 C 2.679688 -1.878906 2.234375 -3.257812 2.234375 -5.15625 L 2.234375 -14.90625 Z M 4.515625 -14.90625 "/></g></g><g transform="translate(270.6869, 807.463226)"><g><path d="M 12.59375 0 L 12.59375 -9.640625 C 12.59375 -10.859375 12.316406 -11.765625 11.765625 -12.359375 C 11.210938 -12.953125 10.34375 -13.25 9.15625 -13.25 C 7.601562 -13.25 6.460938 -12.828125 5.734375 -11.984375 C 5.015625 -11.148438 4.65625 -9.757812 4.65625 -7.8125 L 4.65625 0 L 2.390625 0 L 2.390625 -14.90625 L 4.234375 -14.90625 L 4.59375 -12.859375 L 4.703125 -12.859375 C 5.160156 -13.597656 5.804688 -14.164062 6.640625 -14.5625 C 7.484375 -14.96875 8.414062 -15.171875 9.4375 -15.171875 C 11.226562 -15.171875 12.578125 -14.738281 13.484375 -13.875 C 14.390625 -13.007812 14.84375 -11.625 14.84375 -9.71875 L 14.84375 0 Z M 12.59375 0 "/></g></g><g transform="translate(287.773428, 807.463226)"><g><path d="M 14.59375 -14.90625 L 14.59375 -13.46875 L 11.828125 -13.140625 C 12.078125 -12.828125 12.300781 -12.414062 12.5 -11.90625 C 12.707031 -11.394531 12.8125 -10.816406 12.8125 -10.171875 C 12.8125 -8.710938 12.3125 -7.546875 11.3125 -6.671875 C 10.3125 -5.804688 8.941406 -5.375 7.203125 -5.375 C 6.765625 -5.375 6.347656 -5.410156 5.953125 -5.484375 C 4.992188 -4.972656 4.515625 -4.332031 4.515625 -3.5625 C 4.515625 -3.15625 4.679688 -2.851562 5.015625 -2.65625 C 5.347656 -2.457031 5.925781 -2.359375 6.75 -2.359375 L 9.375 -2.359375 C 10.988281 -2.359375 12.226562 -2.019531 13.09375 -1.34375 C 13.957031 -0.664062 14.390625 0.320312 14.390625 1.625 C 14.390625 3.269531 13.726562 4.523438 12.40625 5.390625 C 11.082031 6.253906 9.15625 6.6875 6.625 6.6875 C 4.675781 6.6875 3.171875 6.320312 2.109375 5.59375 C 1.054688 4.875 0.53125 3.851562 0.53125 2.53125 C 0.53125 1.625 0.816406 0.835938 1.390625 0.171875 C 1.972656 -0.484375 2.789062 -0.929688 3.84375 -1.171875 C 3.46875 -1.335938 3.148438 -1.601562 2.890625 -1.96875 C 2.628906 -2.332031 2.5 -2.753906 2.5 -3.234375 C 2.5 -3.773438 2.644531 -4.25 2.9375 -4.65625 C 3.226562 -5.070312 3.6875 -5.46875 4.3125 -5.84375 C 3.539062 -6.164062 2.910156 -6.707031 2.421875 -7.46875 C 1.941406 -8.226562 1.703125 -9.097656 1.703125 -10.078125 C 1.703125 -11.703125 2.191406 -12.957031 3.171875 -13.84375 C 4.148438 -14.726562 5.535156 -15.171875 7.328125 -15.171875 C 8.109375 -15.171875 8.8125 -15.082031 9.4375 -14.90625 Z M 2.703125 2.5 C 2.703125 3.3125 3.039062 3.925781 3.71875 4.34375 C 4.40625 4.757812 5.378906 4.96875 6.640625 4.96875 C 8.535156 4.96875 9.9375 4.679688 10.84375 4.109375 C 11.757812 3.546875 12.21875 2.78125 12.21875 1.8125 C 12.21875 1 11.96875 0.4375 11.46875 0.125 C 10.976562 -0.1875 10.039062 -0.34375 8.65625 -0.34375 L 5.953125 -0.34375 C 4.929688 -0.34375 4.132812 -0.0976562 3.5625 0.390625 C 2.988281 0.878906 2.703125 1.582031 2.703125 2.5 Z M 3.921875 -10.125 C 3.921875 -9.082031 4.21875 -8.296875 4.8125 -7.765625 C 5.40625 -7.234375 6.226562 -6.96875 7.28125 -6.96875 C 9.476562 -6.96875 10.578125 -8.035156 10.578125 -10.171875 C 10.578125 -12.410156 9.460938 -13.53125 7.234375 -13.53125 C 6.171875 -13.53125 5.351562 -13.242188 4.78125 -12.671875 C 4.207031 -12.097656 3.921875 -11.25 3.921875 -10.125 Z M 3.921875 -10.125 "/></g></g><g transform="translate(303.024888, 807.463226)"><g/></g><g transform="translate(310.256418, 807.463226)"><g><path d="M 12.53125 -2 L 12.40625 -2 C 11.363281 -0.488281 9.804688 0.265625 7.734375 0.265625 C 5.785156 0.265625 4.269531 -0.394531 3.1875 -1.71875 C 2.101562 -3.050781 1.5625 -4.945312 1.5625 -7.40625 C 1.5625 -9.863281 2.101562 -11.769531 3.1875 -13.125 C 4.28125 -14.488281 5.796875 -15.171875 7.734375 -15.171875 C 9.753906 -15.171875 11.304688 -14.4375 12.390625 -12.96875 L 12.5625 -12.96875 L 12.46875 -14.046875 L 12.40625 -15.09375 L 12.40625 -21.15625 L 14.671875 -21.15625 L 14.671875 0 L 12.828125 0 Z M 8.015625 -1.625 C 9.554688 -1.625 10.671875 -2.039062 11.359375 -2.875 C 12.054688 -3.71875 12.40625 -5.070312 12.40625 -6.9375 L 12.40625 -7.40625 C 12.40625 -9.519531 12.054688 -11.023438 11.359375 -11.921875 C 10.660156 -12.828125 9.539062 -13.28125 8 -13.28125 C 6.675781 -13.28125 5.660156 -12.765625 4.953125 -11.734375 C 4.253906 -10.710938 3.90625 -9.257812 3.90625 -7.375 C 3.90625 -5.476562 4.253906 -4.046875 4.953125 -3.078125 C 5.648438 -2.109375 6.671875 -1.625 8.015625 -1.625 Z M 8.015625 -1.625 "/></g></g><g transform="translate(327.315761, 807.463226)"><g><path d="M 8.6875 0.265625 C 6.488281 0.265625 4.75 -0.398438 3.46875 -1.734375 C 2.195312 -3.078125 1.5625 -4.941406 1.5625 -7.328125 C 1.5625 -9.734375 2.148438 -11.640625 3.328125 -13.046875 C 4.515625 -14.460938 6.109375 -15.171875 8.109375 -15.171875 C 9.972656 -15.171875 11.445312 -14.554688 12.53125 -13.328125 C 13.625 -12.097656 14.171875 -10.476562 14.171875 -8.46875 L 14.171875 -7.046875 L 3.90625 -7.046875 C 3.945312 -5.296875 4.382812 -3.96875 5.21875 -3.0625 C 6.0625 -2.15625 7.242188 -1.703125 8.765625 -1.703125 C 10.367188 -1.703125 11.957031 -2.035156 13.53125 -2.703125 L 13.53125 -0.6875 C 12.726562 -0.34375 11.972656 -0.0976562 11.265625 0.046875 C 10.554688 0.191406 9.695312 0.265625 8.6875 0.265625 Z M 8.078125 -13.28125 C 6.878906 -13.28125 5.921875 -12.890625 5.203125 -12.109375 C 4.492188 -11.328125 4.078125 -10.25 3.953125 -8.875 L 11.75 -8.875 C 11.75 -10.300781 11.429688 -11.390625 10.796875 -12.140625 C 10.160156 -12.898438 9.253906 -13.28125 8.078125 -13.28125 Z M 8.078125 -13.28125 "/></g></g><g transform="translate(342.934235, 807.463226)"><g><path d="M 12 -4.0625 C 12 -2.675781 11.484375 -1.609375 10.453125 -0.859375 C 9.421875 -0.109375 7.972656 0.265625 6.109375 0.265625 C 4.128906 0.265625 2.585938 -0.046875 1.484375 -0.671875 L 1.484375 -2.765625 C 2.203125 -2.398438 2.96875 -2.113281 3.78125 -1.90625 C 4.601562 -1.695312 5.394531 -1.59375 6.15625 -1.59375 C 7.332031 -1.59375 8.238281 -1.78125 8.875 -2.15625 C 9.507812 -2.53125 9.828125 -3.101562 9.828125 -3.875 C 9.828125 -4.457031 9.578125 -4.953125 9.078125 -5.359375 C 8.578125 -5.773438 7.59375 -6.265625 6.125 -6.828125 C 4.738281 -7.335938 3.753906 -7.785156 3.171875 -8.171875 C 2.585938 -8.554688 2.148438 -8.992188 1.859375 -9.484375 C 1.578125 -9.972656 1.4375 -10.5625 1.4375 -11.25 C 1.4375 -12.457031 1.929688 -13.410156 2.921875 -14.109375 C 3.910156 -14.816406 5.265625 -15.171875 6.984375 -15.171875 C 8.585938 -15.171875 10.15625 -14.84375 11.6875 -14.1875 L 10.890625 -12.359375 C 9.390625 -12.972656 8.035156 -13.28125 6.828125 -13.28125 C 5.753906 -13.28125 4.945312 -13.113281 4.40625 -12.78125 C 3.863281 -12.445312 3.59375 -11.984375 3.59375 -11.390625 C 3.59375 -10.992188 3.691406 -10.65625 3.890625 -10.375 C 4.097656 -10.09375 4.425781 -9.820312 4.875 -9.5625 C 5.332031 -9.3125 6.203125 -8.945312 7.484375 -8.46875 C 9.253906 -7.820312 10.445312 -7.171875 11.0625 -6.515625 C 11.6875 -5.867188 12 -5.050781 12 -4.0625 Z M 12 -4.0625 "/></g></g></g><g fill="#000000" fill-opacity="1"><g transform="translate(162.223012, 845.7414)"><g><path d="M 13.953125 -5.28125 C 13.953125 -3.539062 13.316406 -2.179688 12.046875 -1.203125 C 10.773438 -0.222656 9.050781 0.265625 6.875 0.265625 C 4.519531 0.265625 2.707031 -0.0351562 1.4375 -0.640625 L 1.4375 -2.875 C 2.257812 -2.53125 3.148438 -2.253906 4.109375 -2.046875 C 5.066406 -1.847656 6.019531 -1.75 6.96875 -1.75 C 8.5 -1.75 9.65625 -2.039062 10.4375 -2.625 C 11.21875 -3.207031 11.609375 -4.023438 11.609375 -5.078125 C 11.609375 -5.765625 11.46875 -6.328125 11.1875 -6.765625 C 10.914062 -7.203125 10.457031 -7.601562 9.8125 -7.96875 C 9.164062 -8.34375 8.179688 -8.769531 6.859375 -9.25 C 5.003906 -9.90625 3.679688 -10.6875 2.890625 -11.59375 C 2.097656 -12.5 1.703125 -13.679688 1.703125 -15.140625 C 1.703125 -16.671875 2.273438 -17.890625 3.421875 -18.796875 C 4.578125 -19.703125 6.101562 -20.15625 8 -20.15625 C 9.96875 -20.15625 11.785156 -19.796875 13.453125 -19.078125 L 12.71875 -17.0625 C 11.082031 -17.75 9.488281 -18.09375 7.9375 -18.09375 C 6.71875 -18.09375 5.757812 -17.828125 5.0625 -17.296875 C 4.375 -16.773438 4.03125 -16.050781 4.03125 -15.125 C 4.03125 -14.425781 4.15625 -13.859375 4.40625 -13.421875 C 4.664062 -12.984375 5.097656 -12.582031 5.703125 -12.21875 C 6.304688 -11.851562 7.226562 -11.445312 8.46875 -11 C 10.550781 -10.257812 11.984375 -9.460938 12.765625 -8.609375 C 13.554688 -7.753906 13.953125 -6.644531 13.953125 -5.28125 Z M 13.953125 -5.28125 "/></g></g><g transform="translate(177.501658, 845.7414)"><g><path d="M 8.6875 0.265625 C 6.488281 0.265625 4.75 -0.398438 3.46875 -1.734375 C 2.195312 -3.078125 1.5625 -4.941406 1.5625 -7.328125 C 1.5625 -9.734375 2.148438 -11.640625 3.328125 -13.046875 C 4.515625 -14.460938 6.109375 -15.171875 8.109375 -15.171875 C 9.972656 -15.171875 11.445312 -14.554688 12.53125 -13.328125 C 13.625 -12.097656 14.171875 -10.476562 14.171875 -8.46875 L 14.171875 -7.046875 L 3.90625 -7.046875 C 3.945312 -5.296875 4.382812 -3.96875 5.21875 -3.0625 C 6.0625 -2.15625 7.242188 -1.703125 8.765625 -1.703125 C 10.367188 -1.703125 11.957031 -2.035156 13.53125 -2.703125 L 13.53125 -0.6875 C 12.726562 -0.34375 11.972656 -0.0976562 11.265625 0.046875 C 10.554688 0.191406 9.695312 0.265625 8.6875 0.265625 Z M 8.078125 -13.28125 C 6.878906 -13.28125 5.921875 -12.890625 5.203125 -12.109375 C 4.492188 -11.328125 4.078125 -10.25 3.953125 -8.875 L 11.75 -8.875 C 11.75 -10.300781 11.429688 -11.390625 10.796875 -12.140625 C 10.160156 -12.898438 9.253906 -13.28125 8.078125 -13.28125 Z M 8.078125 -13.28125 "/></g></g><g transform="translate(193.120132, 845.7414)"><g><path d="M 4.65625 0 L 2.390625 0 L 2.390625 -21.15625 L 4.65625 -21.15625 Z M 4.65625 0 "/></g></g><g transform="translate(200.161358, 845.7414)"><g><path d="M 9.328125 -15.140625 C 11.285156 -15.140625 12.804688 -14.472656 13.890625 -13.140625 C 14.972656 -11.804688 15.515625 -9.914062 15.515625 -7.46875 C 15.515625 -5.019531 14.96875 -3.117188 13.875 -1.765625 C 12.78125 -0.410156 11.265625 0.265625 9.328125 0.265625 C 8.359375 0.265625 7.472656 0.0859375 6.671875 -0.265625 C 5.867188 -0.617188 5.195312 -1.171875 4.65625 -1.921875 L 4.484375 -1.921875 L 4.015625 0 L 2.390625 0 L 2.390625 -21.15625 L 4.65625 -21.15625 L 4.65625 -16.015625 C 4.65625 -14.859375 4.617188 -13.828125 4.546875 -12.921875 L 4.65625 -12.921875 C 5.707031 -14.398438 7.265625 -15.140625 9.328125 -15.140625 Z M 9 -13.25 C 7.457031 -13.25 6.347656 -12.804688 5.671875 -11.921875 C 4.992188 -11.046875 4.65625 -9.5625 4.65625 -7.46875 C 4.65625 -5.375 5.003906 -3.875 5.703125 -2.96875 C 6.398438 -2.070312 7.515625 -1.625 9.046875 -1.625 C 10.441406 -1.625 11.476562 -2.128906 12.15625 -3.140625 C 12.832031 -4.148438 13.171875 -5.597656 13.171875 -7.484375 C 13.171875 -9.429688 12.832031 -10.878906 12.15625 -11.828125 C 11.476562 -12.773438 10.425781 -13.25 9 -13.25 Z M 9 -13.25 "/></g></g><g transform="translate(217.220701, 845.7414)"><g><path d="M 12 -4.0625 C 12 -2.675781 11.484375 -1.609375 10.453125 -0.859375 C 9.421875 -0.109375 7.972656 0.265625 6.109375 0.265625 C 4.128906 0.265625 2.585938 -0.046875 1.484375 -0.671875 L 1.484375 -2.765625 C 2.203125 -2.398438 2.96875 -2.113281 3.78125 -1.90625 C 4.601562 -1.695312 5.394531 -1.59375 6.15625 -1.59375 C 7.332031 -1.59375 8.238281 -1.78125 8.875 -2.15625 C 9.507812 -2.53125 9.828125 -3.101562 9.828125 -3.875 C 9.828125 -4.457031 9.578125 -4.953125 9.078125 -5.359375 C 8.578125 -5.773438 7.59375 -6.265625 6.125 -6.828125 C 4.738281 -7.335938 3.753906 -7.785156 3.171875 -8.171875 C 2.585938 -8.554688 2.148438 -8.992188 1.859375 -9.484375 C 1.578125 -9.972656 1.4375 -10.5625 1.4375 -11.25 C 1.4375 -12.457031 1.929688 -13.410156 2.921875 -14.109375 C 3.910156 -14.816406 5.265625 -15.171875 6.984375 -15.171875 C 8.585938 -15.171875 10.15625 -14.84375 11.6875 -14.1875 L 10.890625 -12.359375 C 9.390625 -12.972656 8.035156 -13.28125 6.828125 -13.28125 C 5.753906 -13.28125 4.945312 -13.113281 4.40625 -12.78125 C 3.863281 -12.445312 3.59375 -11.984375 3.59375 -11.390625 C 3.59375 -10.992188 3.691406 -10.65625 3.890625 -10.375 C 4.097656 -10.09375 4.425781 -9.820312 4.875 -9.5625 C 5.332031 -9.3125 6.203125 -8.945312 7.484375 -8.46875 C 9.253906 -7.820312 10.445312 -7.171875 11.0625 -6.515625 C 11.6875 -5.867188 12 -5.050781 12 -4.0625 Z M 12 -4.0625 "/></g></g><g transform="translate(230.501161, 845.7414)"><g><path d="M 7.203125 -1.59375 C 7.597656 -1.59375 7.984375 -1.617188 8.359375 -1.671875 C 8.734375 -1.734375 9.03125 -1.796875 9.25 -1.859375 L 9.25 -0.140625 C 9 -0.015625 8.632812 0.0820312 8.15625 0.15625 C 7.6875 0.226562 7.257812 0.265625 6.875 0.265625 C 4 0.265625 2.5625 -1.25 2.5625 -4.28125 L 2.5625 -13.140625 L 0.421875 -13.140625 L 0.421875 -14.234375 L 2.5625 -15.171875 L 3.5 -18.359375 L 4.8125 -18.359375 L 4.8125 -14.90625 L 9.140625 -14.90625 L 9.140625 -13.140625 L 4.8125 -13.140625 L 4.8125 -4.375 C 4.8125 -3.476562 5.023438 -2.789062 5.453125 -2.3125 C 5.878906 -1.832031 6.460938 -1.59375 7.203125 -1.59375 Z M 7.203125 -1.59375 "/></g></g><g transform="translate(240.328973, 845.7414)"><g><path d="M 5.65625 0 L 0 -14.90625 L 2.421875 -14.90625 L 5.625 -6.0625 C 6.351562 -4 6.78125 -2.660156 6.90625 -2.046875 L 7.015625 -2.046875 C 7.117188 -2.523438 7.429688 -3.515625 7.953125 -5.015625 C 8.484375 -6.523438 9.675781 -9.820312 11.53125 -14.90625 L 13.953125 -14.90625 L 8.296875 0 Z M 5.65625 0 "/></g></g><g transform="translate(254.275495, 845.7414)"><g><path d="M 8.6875 0.265625 C 6.488281 0.265625 4.75 -0.398438 3.46875 -1.734375 C 2.195312 -3.078125 1.5625 -4.941406 1.5625 -7.328125 C 1.5625 -9.734375 2.148438 -11.640625 3.328125 -13.046875 C 4.515625 -14.460938 6.109375 -15.171875 8.109375 -15.171875 C 9.972656 -15.171875 11.445312 -14.554688 12.53125 -13.328125 C 13.625 -12.097656 14.171875 -10.476562 14.171875 -8.46875 L 14.171875 -7.046875 L 3.90625 -7.046875 C 3.945312 -5.296875 4.382812 -3.96875 5.21875 -3.0625 C 6.0625 -2.15625 7.242188 -1.703125 8.765625 -1.703125 C 10.367188 -1.703125 11.957031 -2.035156 13.53125 -2.703125 L 13.53125 -0.6875 C 12.726562 -0.34375 11.972656 -0.0976562 11.265625 0.046875 C 10.554688 0.191406 9.695312 0.265625 8.6875 0.265625 Z M 8.078125 -13.28125 C 6.878906 -13.28125 5.921875 -12.890625 5.203125 -12.109375 C 4.492188 -11.328125 4.078125 -10.25 3.953125 -8.875 L 11.75 -8.875 C 11.75 -10.300781 11.429688 -11.390625 10.796875 -12.140625 C 10.160156 -12.898438 9.253906 -13.28125 8.078125 -13.28125 Z M 8.078125 -13.28125 "/></g></g><g transform="translate(269.893969, 845.7414)"><g><path d="M 9.1875 -15.171875 C 9.851562 -15.171875 10.445312 -15.117188 10.96875 -15.015625 L 10.65625 -12.921875 C 10.039062 -13.054688 9.5 -13.125 9.03125 -13.125 C 7.820312 -13.125 6.789062 -12.632812 5.9375 -11.65625 C 5.082031 -10.675781 4.65625 -9.457031 4.65625 -8 L 4.65625 0 L 2.390625 0 L 2.390625 -14.90625 L 4.25 -14.90625 L 4.515625 -12.140625 L 4.625 -12.140625 C 5.175781 -13.109375 5.84375 -13.851562 6.625 -14.375 C 7.40625 -14.90625 8.257812 -15.171875 9.1875 -15.171875 Z M 9.1875 -15.171875 "/></g></g><g transform="translate(281.257802, 845.7414)"><g><path d="M 7.203125 -1.59375 C 7.597656 -1.59375 7.984375 -1.617188 8.359375 -1.671875 C 8.734375 -1.734375 9.03125 -1.796875 9.25 -1.859375 L 9.25 -0.140625 C 9 -0.015625 8.632812 0.0820312 8.15625 0.15625 C 7.6875 0.226562 7.257812 0.265625 6.875 0.265625 C 4 0.265625 2.5625 -1.25 2.5625 -4.28125 L 2.5625 -13.140625 L 0.421875 -13.140625 L 0.421875 -14.234375 L 2.5625 -15.171875 L 3.5 -18.359375 L 4.8125 -18.359375 L 4.8125 -14.90625 L 9.140625 -14.90625 L 9.140625 -13.140625 L 4.8125 -13.140625 L 4.8125 -4.375 C 4.8125 -3.476562 5.023438 -2.789062 5.453125 -2.3125 C 5.878906 -1.832031 6.460938 -1.59375 7.203125 -1.59375 Z M 7.203125 -1.59375 "/></g></g><g transform="translate(291.085615, 845.7414)"><g><path d="M 9.1875 -15.171875 C 9.851562 -15.171875 10.445312 -15.117188 10.96875 -15.015625 L 10.65625 -12.921875 C 10.039062 -13.054688 9.5 -13.125 9.03125 -13.125 C 7.820312 -13.125 6.789062 -12.632812 5.9375 -11.65625 C 5.082031 -10.675781 4.65625 -9.457031 4.65625 -8 L 4.65625 0 L 2.390625 0 L 2.390625 -14.90625 L 4.25 -14.90625 L 4.515625 -12.140625 L 4.625 -12.140625 C 5.175781 -13.109375 5.84375 -13.851562 6.625 -14.375 C 7.40625 -14.90625 8.257812 -15.171875 9.1875 -15.171875 Z M 9.1875 -15.171875 "/></g></g><g transform="translate(302.449448, 845.7414)"><g><path d="M 11.5625 0 L 11.109375 -2.125 L 11 -2.125 C 10.257812 -1.1875 9.519531 -0.550781 8.78125 -0.21875 C 8.039062 0.101562 7.117188 0.265625 6.015625 0.265625 C 4.535156 0.265625 3.375 -0.113281 2.53125 -0.875 C 1.695312 -1.632812 1.28125 -2.71875 1.28125 -4.125 C 1.28125 -7.132812 3.6875 -8.707031 8.5 -8.84375 L 11.03125 -8.9375 L 11.03125 -9.859375 C 11.03125 -11.023438 10.773438 -11.882812 10.265625 -12.4375 C 9.765625 -13 8.960938 -13.28125 7.859375 -13.28125 C 6.617188 -13.28125 5.210938 -12.898438 3.640625 -12.140625 L 2.953125 -13.875 C 3.679688 -14.269531 4.484375 -14.578125 5.359375 -14.796875 C 6.234375 -15.023438 7.113281 -15.140625 8 -15.140625 C 9.769531 -15.140625 11.082031 -14.742188 11.9375 -13.953125 C 12.800781 -13.171875 13.234375 -11.910156 13.234375 -10.171875 L 13.234375 0 Z M 6.453125 -1.59375 C 7.859375 -1.59375 8.960938 -1.976562 9.765625 -2.75 C 10.566406 -3.519531 10.96875 -4.597656 10.96875 -5.984375 L 10.96875 -7.328125 L 8.71875 -7.234375 C 6.914062 -7.171875 5.617188 -6.890625 4.828125 -6.390625 C 4.035156 -5.898438 3.640625 -5.132812 3.640625 -4.09375 C 3.640625 -3.28125 3.882812 -2.660156 4.375 -2.234375 C 4.875 -1.804688 5.566406 -1.59375 6.453125 -1.59375 Z M 6.453125 -1.59375 "/></g></g><g transform="translate(317.93199, 845.7414)"><g><path d="M 4.515625 -14.90625 L 4.515625 -5.234375 C 4.515625 -4.015625 4.789062 -3.109375 5.34375 -2.515625 C 5.894531 -1.921875 6.757812 -1.625 7.9375 -1.625 C 9.5 -1.625 10.640625 -2.046875 11.359375 -2.890625 C 12.078125 -3.742188 12.4375 -5.132812 12.4375 -7.0625 L 12.4375 -14.90625 L 14.703125 -14.90625 L 14.703125 0 L 12.828125 0 L 12.515625 -2 L 12.390625 -2 C 11.921875 -1.257812 11.273438 -0.695312 10.453125 -0.3125 C 9.640625 0.0703125 8.707031 0.265625 7.65625 0.265625 C 5.84375 0.265625 4.484375 -0.160156 3.578125 -1.015625 C 2.679688 -1.878906 2.234375 -3.257812 2.234375 -5.15625 L 2.234375 -14.90625 Z M 4.515625 -14.90625 "/></g></g><g transform="translate(335.018519, 845.7414)"><g><path d="M 8.6875 0.265625 C 6.488281 0.265625 4.75 -0.398438 3.46875 -1.734375 C 2.195312 -3.078125 1.5625 -4.941406 1.5625 -7.328125 C 1.5625 -9.734375 2.148438 -11.640625 3.328125 -13.046875 C 4.515625 -14.460938 6.109375 -15.171875 8.109375 -15.171875 C 9.972656 -15.171875 11.445312 -14.554688 12.53125 -13.328125 C 13.625 -12.097656 14.171875 -10.476562 14.171875 -8.46875 L 14.171875 -7.046875 L 3.90625 -7.046875 C 3.945312 -5.296875 4.382812 -3.96875 5.21875 -3.0625 C 6.0625 -2.15625 7.242188 -1.703125 8.765625 -1.703125 C 10.367188 -1.703125 11.957031 -2.035156 13.53125 -2.703125 L 13.53125 -0.6875 C 12.726562 -0.34375 11.972656 -0.0976562 11.265625 0.046875 C 10.554688 0.191406 9.695312 0.265625 8.6875 0.265625 Z M 8.078125 -13.28125 C 6.878906 -13.28125 5.921875 -12.890625 5.203125 -12.109375 C 4.492188 -11.328125 4.078125 -10.25 3.953125 -8.875 L 11.75 -8.875 C 11.75 -10.300781 11.429688 -11.390625 10.796875 -12.140625 C 10.160156 -12.898438 9.253906 -13.28125 8.078125 -13.28125 Z M 8.078125 -13.28125 "/></g></g><g transform="translate(350.636992, 845.7414)"><g><path d="M 12.59375 0 L 12.59375 -9.640625 C 12.59375 -10.859375 12.316406 -11.765625 11.765625 -12.359375 C 11.210938 -12.953125 10.34375 -13.25 9.15625 -13.25 C 7.601562 -13.25 6.460938 -12.828125 5.734375 -11.984375 C 5.015625 -11.148438 4.65625 -9.757812 4.65625 -7.8125 L 4.65625 0 L 2.390625 0 L 2.390625 -14.90625 L 4.234375 -14.90625 L 4.59375 -12.859375 L 4.703125 -12.859375 C 5.160156 -13.597656 5.804688 -14.164062 6.640625 -14.5625 C 7.484375 -14.96875 8.414062 -15.171875 9.4375 -15.171875 C 11.226562 -15.171875 12.578125 -14.738281 13.484375 -13.875 C 14.390625 -13.007812 14.84375 -11.625 14.84375 -9.71875 L 14.84375 0 Z M 12.59375 0 "/></g></g><g transform="translate(367.723521, 845.7414)"><g><path d="M 12 -4.0625 C 12 -2.675781 11.484375 -1.609375 10.453125 -0.859375 C 9.421875 -0.109375 7.972656 0.265625 6.109375 0.265625 C 4.128906 0.265625 2.585938 -0.046875 1.484375 -0.671875 L 1.484375 -2.765625 C 2.203125 -2.398438 2.96875 -2.113281 3.78125 -1.90625 C 4.601562 -1.695312 5.394531 -1.59375 6.15625 -1.59375 C 7.332031 -1.59375 8.238281 -1.78125 8.875 -2.15625 C 9.507812 -2.53125 9.828125 -3.101562 9.828125 -3.875 C 9.828125 -4.457031 9.578125 -4.953125 9.078125 -5.359375 C 8.578125 -5.773438 7.59375 -6.265625 6.125 -6.828125 C 4.738281 -7.335938 3.753906 -7.785156 3.171875 -8.171875 C 2.585938 -8.554688 2.148438 -8.992188 1.859375 -9.484375 C 1.578125 -9.972656 1.4375 -10.5625 1.4375 -11.25 C 1.4375 -12.457031 1.929688 -13.410156 2.921875 -14.109375 C 3.910156 -14.816406 5.265625 -15.171875 6.984375 -15.171875 C 8.585938 -15.171875 10.15625 -14.84375 11.6875 -14.1875 L 10.890625 -12.359375 C 9.390625 -12.972656 8.035156 -13.28125 6.828125 -13.28125 C 5.753906 -13.28125 4.945312 -13.113281 4.40625 -12.78125 C 3.863281 -12.445312 3.59375 -11.984375 3.59375 -11.390625 C 3.59375 -10.992188 3.691406 -10.65625 3.890625 -10.375 C 4.097656 -10.09375 4.425781 -9.820312 4.875 -9.5625 C 5.332031 -9.3125 6.203125 -8.945312 7.484375 -8.46875 C 9.253906 -7.820312 10.445312 -7.171875 11.0625 -6.515625 C 11.6875 -5.867188 12 -5.050781 12 -4.0625 Z M 12 -4.0625 "/></g></g></g><g fill="#000000" fill-opacity="1"><g transform="translate(719.498993, 807.463226)"><g><path d="M 2.734375 0 L 2.734375 -19.875 L 5.046875 -19.875 L 5.046875 -2.09375 L 13.8125 -2.09375 L 13.8125 0 Z M 2.734375 0 "/></g></g><g transform="translate(733.94846, 807.463226)"><g><path d="M 8.6875 0.265625 C 6.488281 0.265625 4.75 -0.398438 3.46875 -1.734375 C 2.195312 -3.078125 1.5625 -4.941406 1.5625 -7.328125 C 1.5625 -9.734375 2.148438 -11.640625 3.328125 -13.046875 C 4.515625 -14.460938 6.109375 -15.171875 8.109375 -15.171875 C 9.972656 -15.171875 11.445312 -14.554688 12.53125 -13.328125 C 13.625 -12.097656 14.171875 -10.476562 14.171875 -8.46875 L 14.171875 -7.046875 L 3.90625 -7.046875 C 3.945312 -5.296875 4.382812 -3.96875 5.21875 -3.0625 C 6.0625 -2.15625 7.242188 -1.703125 8.765625 -1.703125 C 10.367188 -1.703125 11.957031 -2.035156 13.53125 -2.703125 L 13.53125 -0.6875 C 12.726562 -0.34375 11.972656 -0.0976562 11.265625 0.046875 C 10.554688 0.191406 9.695312 0.265625 8.6875 0.265625 Z M 8.078125 -13.28125 C 6.878906 -13.28125 5.921875 -12.890625 5.203125 -12.109375 C 4.492188 -11.328125 4.078125 -10.25 3.953125 -8.875 L 11.75 -8.875 C 11.75 -10.300781 11.429688 -11.390625 10.796875 -12.140625 C 10.160156 -12.898438 9.253906 -13.28125 8.078125 -13.28125 Z M 8.078125 -13.28125 "/></g></g><g transform="translate(749.566934, 807.463226)"><g><path d="M 9.1875 -15.171875 C 9.851562 -15.171875 10.445312 -15.117188 10.96875 -15.015625 L 10.65625 -12.921875 C 10.039062 -13.054688 9.5 -13.125 9.03125 -13.125 C 7.820312 -13.125 6.789062 -12.632812 5.9375 -11.65625 C 5.082031 -10.675781 4.65625 -9.457031 4.65625 -8 L 4.65625 0 L 2.390625 0 L 2.390625 -14.90625 L 4.25 -14.90625 L 4.515625 -12.140625 L 4.625 -12.140625 C 5.175781 -13.109375 5.84375 -13.851562 6.625 -14.375 C 7.40625 -14.90625 8.257812 -15.171875 9.1875 -15.171875 Z M 9.1875 -15.171875 "/></g></g><g transform="translate(760.930767, 807.463226)"><g><path d="M 12.59375 0 L 12.59375 -9.640625 C 12.59375 -10.859375 12.316406 -11.765625 11.765625 -12.359375 C 11.210938 -12.953125 10.34375 -13.25 9.15625 -13.25 C 7.601562 -13.25 6.460938 -12.828125 5.734375 -11.984375 C 5.015625 -11.148438 4.65625 -9.757812 4.65625 -7.8125 L 4.65625 0 L 2.390625 0 L 2.390625 -14.90625 L 4.234375 -14.90625 L 4.59375 -12.859375 L 4.703125 -12.859375 C 5.160156 -13.597656 5.804688 -14.164062 6.640625 -14.5625 C 7.484375 -14.96875 8.414062 -15.171875 9.4375 -15.171875 C 11.226562 -15.171875 12.578125 -14.738281 13.484375 -13.875 C 14.390625 -13.007812 14.84375 -11.625 14.84375 -9.71875 L 14.84375 0 Z M 12.59375 0 "/></g></g><g transform="translate(778.017296, 807.463226)"><g><path d="M 9.109375 -13.140625 L 5.3125 -13.140625 L 5.3125 0 L 3.0625 0 L 3.0625 -13.140625 L 0.390625 -13.140625 L 0.390625 -14.171875 L 3.0625 -14.984375 L 3.0625 -15.8125 C 3.0625 -19.46875 4.660156 -21.296875 7.859375 -21.296875 C 8.648438 -21.296875 9.570312 -21.140625 10.625 -20.828125 L 10.046875 -19.015625 C 9.171875 -19.296875 8.425781 -19.4375 7.8125 -19.4375 C 6.96875 -19.4375 6.335938 -19.15625 5.921875 -18.59375 C 5.515625 -18.03125 5.3125 -17.117188 5.3125 -15.859375 L 5.3125 -14.90625 L 9.109375 -14.90625 Z M 9.109375 -13.140625 "/></g></g><g transform="translate(787.450908, 807.463226)"><g><path d="M 15.25 -7.46875 C 15.25 -5.039062 14.632812 -3.144531 13.40625 -1.78125 C 12.1875 -0.414062 10.5 0.265625 8.34375 0.265625 C 7.007812 0.265625 5.828125 -0.046875 4.796875 -0.671875 C 3.765625 -1.296875 2.96875 -2.191406 2.40625 -3.359375 C 1.84375 -4.523438 1.5625 -5.894531 1.5625 -7.46875 C 1.5625 -9.894531 2.164062 -11.785156 3.375 -13.140625 C 4.59375 -14.492188 6.28125 -15.171875 8.4375 -15.171875 C 10.519531 -15.171875 12.175781 -14.476562 13.40625 -13.09375 C 14.632812 -11.707031 15.25 -9.832031 15.25 -7.46875 Z M 3.90625 -7.46875 C 3.90625 -5.5625 4.285156 -4.109375 5.046875 -3.109375 C 5.804688 -2.117188 6.925781 -1.625 8.40625 -1.625 C 9.882812 -1.625 11.003906 -2.117188 11.765625 -3.109375 C 12.535156 -4.097656 12.921875 -5.550781 12.921875 -7.46875 C 12.921875 -9.363281 12.535156 -10.800781 11.765625 -11.78125 C 11.003906 -12.757812 9.875 -13.25 8.375 -13.25 C 6.894531 -13.25 5.78125 -12.765625 5.03125 -11.796875 C 4.28125 -10.828125 3.90625 -9.382812 3.90625 -7.46875 Z M 3.90625 -7.46875 "/></g></g><g transform="translate(804.265575, 807.463226)"><g><path d="M 9.1875 -15.171875 C 9.851562 -15.171875 10.445312 -15.117188 10.96875 -15.015625 L 10.65625 -12.921875 C 10.039062 -13.054688 9.5 -13.125 9.03125 -13.125 C 7.820312 -13.125 6.789062 -12.632812 5.9375 -11.65625 C 5.082031 -10.675781 4.65625 -9.457031 4.65625 -8 L 4.65625 0 L 2.390625 0 L 2.390625 -14.90625 L 4.25 -14.90625 L 4.515625 -12.140625 L 4.625 -12.140625 C 5.175781 -13.109375 5.84375 -13.851562 6.625 -14.375 C 7.40625 -14.90625 8.257812 -15.171875 9.1875 -15.171875 Z M 9.1875 -15.171875 "/></g></g><g transform="translate(815.629408, 807.463226)"><g><path d="M 7.203125 -1.59375 C 7.597656 -1.59375 7.984375 -1.617188 8.359375 -1.671875 C 8.734375 -1.734375 9.03125 -1.796875 9.25 -1.859375 L 9.25 -0.140625 C 9 -0.015625 8.632812 0.0820312 8.15625 0.15625 C 7.6875 0.226562 7.257812 0.265625 6.875 0.265625 C 4 0.265625 2.5625 -1.25 2.5625 -4.28125 L 2.5625 -13.140625 L 0.421875 -13.140625 L 0.421875 -14.234375 L 2.5625 -15.171875 L 3.5 -18.359375 L 4.8125 -18.359375 L 4.8125 -14.90625 L 9.140625 -14.90625 L 9.140625 -13.140625 L 4.8125 -13.140625 L 4.8125 -4.375 C 4.8125 -3.476562 5.023438 -2.789062 5.453125 -2.3125 C 5.878906 -1.832031 6.460938 -1.59375 7.203125 -1.59375 Z M 7.203125 -1.59375 "/></g></g><g transform="translate(825.45722, 807.463226)"><g><path d="M 12 -4.0625 C 12 -2.675781 11.484375 -1.609375 10.453125 -0.859375 C 9.421875 -0.109375 7.972656 0.265625 6.109375 0.265625 C 4.128906 0.265625 2.585938 -0.046875 1.484375 -0.671875 L 1.484375 -2.765625 C 2.203125 -2.398438 2.96875 -2.113281 3.78125 -1.90625 C 4.601562 -1.695312 5.394531 -1.59375 6.15625 -1.59375 C 7.332031 -1.59375 8.238281 -1.78125 8.875 -2.15625 C 9.507812 -2.53125 9.828125 -3.101562 9.828125 -3.875 C 9.828125 -4.457031 9.578125 -4.953125 9.078125 -5.359375 C 8.578125 -5.773438 7.59375 -6.265625 6.125 -6.828125 C 4.738281 -7.335938 3.753906 -7.785156 3.171875 -8.171875 C 2.585938 -8.554688 2.148438 -8.992188 1.859375 -9.484375 C 1.578125 -9.972656 1.4375 -10.5625 1.4375 -11.25 C 1.4375 -12.457031 1.929688 -13.410156 2.921875 -14.109375 C 3.910156 -14.816406 5.265625 -15.171875 6.984375 -15.171875 C 8.585938 -15.171875 10.15625 -14.84375 11.6875 -14.1875 L 10.890625 -12.359375 C 9.390625 -12.972656 8.035156 -13.28125 6.828125 -13.28125 C 5.753906 -13.28125 4.945312 -13.113281 4.40625 -12.78125 C 3.863281 -12.445312 3.59375 -11.984375 3.59375 -11.390625 C 3.59375 -10.992188 3.691406 -10.65625 3.890625 -10.375 C 4.097656 -10.09375 4.425781 -9.820312 4.875 -9.5625 C 5.332031 -9.3125 6.203125 -8.945312 7.484375 -8.46875 C 9.253906 -7.820312 10.445312 -7.171875 11.0625 -6.515625 C 11.6875 -5.867188 12 -5.050781 12 -4.0625 Z M 12 -4.0625 "/></g></g><g transform="translate(838.73768, 807.463226)"><g><path d="M 8.34375 0.265625 C 6.1875 0.265625 4.515625 -0.394531 3.328125 -1.71875 C 2.148438 -3.050781 1.5625 -4.929688 1.5625 -7.359375 C 1.5625 -9.847656 2.160156 -11.769531 3.359375 -13.125 C 4.566406 -14.488281 6.28125 -15.171875 8.5 -15.171875 C 9.21875 -15.171875 9.929688 -15.09375 10.640625 -14.9375 C 11.359375 -14.78125 11.921875 -14.597656 12.328125 -14.390625 L 11.640625 -12.484375 C 11.140625 -12.679688 10.59375 -12.84375 10 -12.96875 C 9.414062 -13.101562 8.894531 -13.171875 8.4375 -13.171875 C 5.414062 -13.171875 3.90625 -11.238281 3.90625 -7.375 C 3.90625 -5.550781 4.273438 -4.148438 5.015625 -3.171875 C 5.753906 -2.191406 6.847656 -1.703125 8.296875 -1.703125 C 9.535156 -1.703125 10.804688 -1.96875 12.109375 -2.5 L 12.109375 -0.5 C 11.117188 0.0078125 9.863281 0.265625 8.34375 0.265625 Z M 8.34375 0.265625 "/></g></g><g transform="translate(851.990954, 807.463226)"><g><path d="M 12.59375 0 L 12.59375 -9.640625 C 12.59375 -10.859375 12.316406 -11.765625 11.765625 -12.359375 C 11.210938 -12.953125 10.34375 -13.25 9.15625 -13.25 C 7.59375 -13.25 6.453125 -12.820312 5.734375 -11.96875 C 5.015625 -11.125 4.65625 -9.734375 4.65625 -7.796875 L 4.65625 0 L 2.390625 0 L 2.390625 -21.15625 L 4.65625 -21.15625 L 4.65625 -14.75 C 4.65625 -13.976562 4.617188 -13.335938 4.546875 -12.828125 L 4.671875 -12.828125 C 5.117188 -13.546875 5.75 -14.109375 6.5625 -14.515625 C 7.382812 -14.929688 8.320312 -15.140625 9.375 -15.140625 C 11.195312 -15.140625 12.5625 -14.707031 13.46875 -13.84375 C 14.382812 -12.976562 14.84375 -11.601562 14.84375 -9.71875 L 14.84375 0 Z M 12.59375 0 "/></g></g><g transform="translate(869.077483, 807.463226)"><g><path d="M 9.1875 -15.171875 C 9.851562 -15.171875 10.445312 -15.117188 10.96875 -15.015625 L 10.65625 -12.921875 C 10.039062 -13.054688 9.5 -13.125 9.03125 -13.125 C 7.820312 -13.125 6.789062 -12.632812 5.9375 -11.65625 C 5.082031 -10.675781 4.65625 -9.457031 4.65625 -8 L 4.65625 0 L 2.390625 0 L 2.390625 -14.90625 L 4.25 -14.90625 L 4.515625 -12.140625 L 4.625 -12.140625 C 5.175781 -13.109375 5.84375 -13.851562 6.625 -14.375 C 7.40625 -14.90625 8.257812 -15.171875 9.1875 -15.171875 Z M 9.1875 -15.171875 "/></g></g><g transform="translate(880.441316, 807.463226)"><g><path d="M 4.65625 0 L 2.390625 0 L 2.390625 -14.90625 L 4.65625 -14.90625 Z M 2.203125 -18.9375 C 2.203125 -19.457031 2.328125 -19.835938 2.578125 -20.078125 C 2.835938 -20.316406 3.15625 -20.4375 3.53125 -20.4375 C 3.894531 -20.4375 4.207031 -20.3125 4.46875 -20.0625 C 4.738281 -19.820312 4.875 -19.445312 4.875 -18.9375 C 4.875 -18.425781 4.738281 -18.046875 4.46875 -17.796875 C 4.207031 -17.546875 3.894531 -17.421875 3.53125 -17.421875 C 3.15625 -17.421875 2.835938 -17.546875 2.578125 -17.796875 C 2.328125 -18.046875 2.203125 -18.425781 2.203125 -18.9375 Z M 2.203125 -18.9375 "/></g></g><g transform="translate(887.482543, 807.463226)"><g><path d="M 7.203125 -1.59375 C 7.597656 -1.59375 7.984375 -1.617188 8.359375 -1.671875 C 8.734375 -1.734375 9.03125 -1.796875 9.25 -1.859375 L 9.25 -0.140625 C 9 -0.015625 8.632812 0.0820312 8.15625 0.15625 C 7.6875 0.226562 7.257812 0.265625 6.875 0.265625 C 4 0.265625 2.5625 -1.25 2.5625 -4.28125 L 2.5625 -13.140625 L 0.421875 -13.140625 L 0.421875 -14.234375 L 2.5625 -15.171875 L 3.5 -18.359375 L 4.8125 -18.359375 L 4.8125 -14.90625 L 9.140625 -14.90625 L 9.140625 -13.140625 L 4.8125 -13.140625 L 4.8125 -4.375 C 4.8125 -3.476562 5.023438 -2.789062 5.453125 -2.3125 C 5.878906 -1.832031 6.460938 -1.59375 7.203125 -1.59375 Z M 7.203125 -1.59375 "/></g></g><g transform="translate(897.310355, 807.463226)"><g><path d="M 7.203125 -1.59375 C 7.597656 -1.59375 7.984375 -1.617188 8.359375 -1.671875 C 8.734375 -1.734375 9.03125 -1.796875 9.25 -1.859375 L 9.25 -0.140625 C 9 -0.015625 8.632812 0.0820312 8.15625 0.15625 C 7.6875 0.226562 7.257812 0.265625 6.875 0.265625 C 4 0.265625 2.5625 -1.25 2.5625 -4.28125 L 2.5625 -13.140625 L 0.421875 -13.140625 L 0.421875 -14.234375 L 2.5625 -15.171875 L 3.5 -18.359375 L 4.8125 -18.359375 L 4.8125 -14.90625 L 9.140625 -14.90625 L 9.140625 -13.140625 L 4.8125 -13.140625 L 4.8125 -4.375 C 4.8125 -3.476562 5.023438 -2.789062 5.453125 -2.3125 C 5.878906 -1.832031 6.460938 -1.59375 7.203125 -1.59375 Z M 7.203125 -1.59375 "/></g></g><g transform="translate(907.138167, 807.463226)"><g><path d="M 8.6875 0.265625 C 6.488281 0.265625 4.75 -0.398438 3.46875 -1.734375 C 2.195312 -3.078125 1.5625 -4.941406 1.5625 -7.328125 C 1.5625 -9.734375 2.148438 -11.640625 3.328125 -13.046875 C 4.515625 -14.460938 6.109375 -15.171875 8.109375 -15.171875 C 9.972656 -15.171875 11.445312 -14.554688 12.53125 -13.328125 C 13.625 -12.097656 14.171875 -10.476562 14.171875 -8.46875 L 14.171875 -7.046875 L 3.90625 -7.046875 C 3.945312 -5.296875 4.382812 -3.96875 5.21875 -3.0625 C 6.0625 -2.15625 7.242188 -1.703125 8.765625 -1.703125 C 10.367188 -1.703125 11.957031 -2.035156 13.53125 -2.703125 L 13.53125 -0.6875 C 12.726562 -0.34375 11.972656 -0.0976562 11.265625 0.046875 C 10.554688 0.191406 9.695312 0.265625 8.6875 0.265625 Z M 8.078125 -13.28125 C 6.878906 -13.28125 5.921875 -12.890625 5.203125 -12.109375 C 4.492188 -11.328125 4.078125 -10.25 3.953125 -8.875 L 11.75 -8.875 C 11.75 -10.300781 11.429688 -11.390625 10.796875 -12.140625 C 10.160156 -12.898438 9.253906 -13.28125 8.078125 -13.28125 Z M 8.078125 -13.28125 "/></g></g></g><g fill="#000000" fill-opacity="1"><g transform="translate(737.133777, 845.7414)"><g><path d="M 4.65625 0 L 2.390625 0 L 2.390625 -14.90625 L 4.65625 -14.90625 Z M 2.203125 -18.9375 C 2.203125 -19.457031 2.328125 -19.835938 2.578125 -20.078125 C 2.835938 -20.316406 3.15625 -20.4375 3.53125 -20.4375 C 3.894531 -20.4375 4.207031 -20.3125 4.46875 -20.0625 C 4.738281 -19.820312 4.875 -19.445312 4.875 -18.9375 C 4.875 -18.425781 4.738281 -18.046875 4.46875 -17.796875 C 4.207031 -17.546875 3.894531 -17.421875 3.53125 -17.421875 C 3.15625 -17.421875 2.835938 -17.546875 2.578125 -17.796875 C 2.328125 -18.046875 2.203125 -18.425781 2.203125 -18.9375 Z M 2.203125 -18.9375 "/></g></g><g transform="translate(744.175004, 845.7414)"><g><path d="M 12.59375 0 L 12.59375 -9.640625 C 12.59375 -10.859375 12.316406 -11.765625 11.765625 -12.359375 C 11.210938 -12.953125 10.34375 -13.25 9.15625 -13.25 C 7.601562 -13.25 6.460938 -12.828125 5.734375 -11.984375 C 5.015625 -11.148438 4.65625 -9.757812 4.65625 -7.8125 L 4.65625 0 L 2.390625 0 L 2.390625 -14.90625 L 4.234375 -14.90625 L 4.59375 -12.859375 L 4.703125 -12.859375 C 5.160156 -13.597656 5.804688 -14.164062 6.640625 -14.5625 C 7.484375 -14.96875 8.414062 -15.171875 9.4375 -15.171875 C 11.226562 -15.171875 12.578125 -14.738281 13.484375 -13.875 C 14.390625 -13.007812 14.84375 -11.625 14.84375 -9.71875 L 14.84375 0 Z M 12.59375 0 "/></g></g><g transform="translate(761.261532, 845.7414)"><g/></g><g transform="translate(768.493062, 845.7414)"><g><path d="M 12.53125 -2 L 12.40625 -2 C 11.363281 -0.488281 9.804688 0.265625 7.734375 0.265625 C 5.785156 0.265625 4.269531 -0.394531 3.1875 -1.71875 C 2.101562 -3.050781 1.5625 -4.945312 1.5625 -7.40625 C 1.5625 -9.863281 2.101562 -11.769531 3.1875 -13.125 C 4.28125 -14.488281 5.796875 -15.171875 7.734375 -15.171875 C 9.753906 -15.171875 11.304688 -14.4375 12.390625 -12.96875 L 12.5625 -12.96875 L 12.46875 -14.046875 L 12.40625 -15.09375 L 12.40625 -21.15625 L 14.671875 -21.15625 L 14.671875 0 L 12.828125 0 Z M 8.015625 -1.625 C 9.554688 -1.625 10.671875 -2.039062 11.359375 -2.875 C 12.054688 -3.71875 12.40625 -5.070312 12.40625 -6.9375 L 12.40625 -7.40625 C 12.40625 -9.519531 12.054688 -11.023438 11.359375 -11.921875 C 10.660156 -12.828125 9.539062 -13.28125 8 -13.28125 C 6.675781 -13.28125 5.660156 -12.765625 4.953125 -11.734375 C 4.253906 -10.710938 3.90625 -9.257812 3.90625 -7.375 C 3.90625 -5.476562 4.253906 -4.046875 4.953125 -3.078125 C 5.648438 -2.109375 6.671875 -1.625 8.015625 -1.625 Z M 8.015625 -1.625 "/></g></g><g transform="translate(785.552405, 845.7414)"><g><path d="M 8.6875 0.265625 C 6.488281 0.265625 4.75 -0.398438 3.46875 -1.734375 C 2.195312 -3.078125 1.5625 -4.941406 1.5625 -7.328125 C 1.5625 -9.734375 2.148438 -11.640625 3.328125 -13.046875 C 4.515625 -14.460938 6.109375 -15.171875 8.109375 -15.171875 C 9.972656 -15.171875 11.445312 -14.554688 12.53125 -13.328125 C 13.625 -12.097656 14.171875 -10.476562 14.171875 -8.46875 L 14.171875 -7.046875 L 3.90625 -7.046875 C 3.945312 -5.296875 4.382812 -3.96875 5.21875 -3.0625 C 6.0625 -2.15625 7.242188 -1.703125 8.765625 -1.703125 C 10.367188 -1.703125 11.957031 -2.035156 13.53125 -2.703125 L 13.53125 -0.6875 C 12.726562 -0.34375 11.972656 -0.0976562 11.265625 0.046875 C 10.554688 0.191406 9.695312 0.265625 8.6875 0.265625 Z M 8.078125 -13.28125 C 6.878906 -13.28125 5.921875 -12.890625 5.203125 -12.109375 C 4.492188 -11.328125 4.078125 -10.25 3.953125 -8.875 L 11.75 -8.875 C 11.75 -10.300781 11.429688 -11.390625 10.796875 -12.140625 C 10.160156 -12.898438 9.253906 -13.28125 8.078125 -13.28125 Z M 8.078125 -13.28125 "/></g></g><g transform="translate(801.170879, 845.7414)"><g><path d="M 9.1875 -15.171875 C 9.851562 -15.171875 10.445312 -15.117188 10.96875 -15.015625 L 10.65625 -12.921875 C 10.039062 -13.054688 9.5 -13.125 9.03125 -13.125 C 7.820312 -13.125 6.789062 -12.632812 5.9375 -11.65625 C 5.082031 -10.675781 4.65625 -9.457031 4.65625 -8 L 4.65625 0 L 2.390625 0 L 2.390625 -14.90625 L 4.25 -14.90625 L 4.515625 -12.140625 L 4.625 -12.140625 C 5.175781 -13.109375 5.84375 -13.851562 6.625 -14.375 C 7.40625 -14.90625 8.257812 -15.171875 9.1875 -15.171875 Z M 9.1875 -15.171875 "/></g></g><g transform="translate(812.534712, 845.7414)"><g/></g><g transform="translate(819.766242, 845.7414)"><g><path d="M 13.953125 -5.28125 C 13.953125 -3.539062 13.316406 -2.179688 12.046875 -1.203125 C 10.773438 -0.222656 9.050781 0.265625 6.875 0.265625 C 4.519531 0.265625 2.707031 -0.0351562 1.4375 -0.640625 L 1.4375 -2.875 C 2.257812 -2.53125 3.148438 -2.253906 4.109375 -2.046875 C 5.066406 -1.847656 6.019531 -1.75 6.96875 -1.75 C 8.5 -1.75 9.65625 -2.039062 10.4375 -2.625 C 11.21875 -3.207031 11.609375 -4.023438 11.609375 -5.078125 C 11.609375 -5.765625 11.46875 -6.328125 11.1875 -6.765625 C 10.914062 -7.203125 10.457031 -7.601562 9.8125 -7.96875 C 9.164062 -8.34375 8.179688 -8.769531 6.859375 -9.25 C 5.003906 -9.90625 3.679688 -10.6875 2.890625 -11.59375 C 2.097656 -12.5 1.703125 -13.679688 1.703125 -15.140625 C 1.703125 -16.671875 2.273438 -17.890625 3.421875 -18.796875 C 4.578125 -19.703125 6.101562 -20.15625 8 -20.15625 C 9.96875 -20.15625 11.785156 -19.796875 13.453125 -19.078125 L 12.71875 -17.0625 C 11.082031 -17.75 9.488281 -18.09375 7.9375 -18.09375 C 6.71875 -18.09375 5.757812 -17.828125 5.0625 -17.296875 C 4.375 -16.773438 4.03125 -16.050781 4.03125 -15.125 C 4.03125 -14.425781 4.15625 -13.859375 4.40625 -13.421875 C 4.664062 -12.984375 5.097656 -12.582031 5.703125 -12.21875 C 6.304688 -11.851562 7.226562 -11.445312 8.46875 -11 C 10.550781 -10.257812 11.984375 -9.460938 12.765625 -8.609375 C 13.554688 -7.753906 13.953125 -6.644531 13.953125 -5.28125 Z M 13.953125 -5.28125 "/></g></g><g transform="translate(835.044888, 845.7414)"><g><path d="M 8.34375 0.265625 C 6.1875 0.265625 4.515625 -0.394531 3.328125 -1.71875 C 2.148438 -3.050781 1.5625 -4.929688 1.5625 -7.359375 C 1.5625 -9.847656 2.160156 -11.769531 3.359375 -13.125 C 4.566406 -14.488281 6.28125 -15.171875 8.5 -15.171875 C 9.21875 -15.171875 9.929688 -15.09375 10.640625 -14.9375 C 11.359375 -14.78125 11.921875 -14.597656 12.328125 -14.390625 L 11.640625 -12.484375 C 11.140625 -12.679688 10.59375 -12.84375 10 -12.96875 C 9.414062 -13.101562 8.894531 -13.171875 8.4375 -13.171875 C 5.414062 -13.171875 3.90625 -11.238281 3.90625 -7.375 C 3.90625 -5.550781 4.273438 -4.148438 5.015625 -3.171875 C 5.753906 -2.191406 6.847656 -1.703125 8.296875 -1.703125 C 9.535156 -1.703125 10.804688 -1.96875 12.109375 -2.5 L 12.109375 -0.5 C 11.117188 0.0078125 9.863281 0.265625 8.34375 0.265625 Z M 8.34375 0.265625 "/></g></g><g transform="translate(848.298162, 845.7414)"><g><path d="M 12.59375 0 L 12.59375 -9.640625 C 12.59375 -10.859375 12.316406 -11.765625 11.765625 -12.359375 C 11.210938 -12.953125 10.34375 -13.25 9.15625 -13.25 C 7.59375 -13.25 6.453125 -12.820312 5.734375 -11.96875 C 5.015625 -11.125 4.65625 -9.734375 4.65625 -7.796875 L 4.65625 0 L 2.390625 0 L 2.390625 -21.15625 L 4.65625 -21.15625 L 4.65625 -14.75 C 4.65625 -13.976562 4.617188 -13.335938 4.546875 -12.828125 L 4.671875 -12.828125 C 5.117188 -13.546875 5.75 -14.109375 6.5625 -14.515625 C 7.382812 -14.929688 8.320312 -15.140625 9.375 -15.140625 C 11.195312 -15.140625 12.5625 -14.707031 13.46875 -13.84375 C 14.382812 -12.976562 14.84375 -11.601562 14.84375 -9.71875 L 14.84375 0 Z M 12.59375 0 "/></g></g><g transform="translate(865.384691, 845.7414)"><g><path d="M 4.515625 -14.90625 L 4.515625 -5.234375 C 4.515625 -4.015625 4.789062 -3.109375 5.34375 -2.515625 C 5.894531 -1.921875 6.757812 -1.625 7.9375 -1.625 C 9.5 -1.625 10.640625 -2.046875 11.359375 -2.890625 C 12.078125 -3.742188 12.4375 -5.132812 12.4375 -7.0625 L 12.4375 -14.90625 L 14.703125 -14.90625 L 14.703125 0 L 12.828125 0 L 12.515625 -2 L 12.390625 -2 C 11.921875 -1.257812 11.273438 -0.695312 10.453125 -0.3125 C 9.640625 0.0703125 8.707031 0.265625 7.65625 0.265625 C 5.84375 0.265625 4.484375 -0.160156 3.578125 -1.015625 C 2.679688 -1.878906 2.234375 -3.257812 2.234375 -5.15625 L 2.234375 -14.90625 Z M 4.515625 -14.90625 "/></g></g><g transform="translate(882.471219, 845.7414)"><g><path d="M 4.65625 0 L 2.390625 0 L 2.390625 -21.15625 L 4.65625 -21.15625 Z M 4.65625 0 "/></g></g><g transform="translate(889.512446, 845.7414)"><g><path d="M 8.6875 0.265625 C 6.488281 0.265625 4.75 -0.398438 3.46875 -1.734375 C 2.195312 -3.078125 1.5625 -4.941406 1.5625 -7.328125 C 1.5625 -9.734375 2.148438 -11.640625 3.328125 -13.046875 C 4.515625 -14.460938 6.109375 -15.171875 8.109375 -15.171875 C 9.972656 -15.171875 11.445312 -14.554688 12.53125 -13.328125 C 13.625 -12.097656 14.171875 -10.476562 14.171875 -8.46875 L 14.171875 -7.046875 L 3.90625 -7.046875 C 3.945312 -5.296875 4.382812 -3.96875 5.21875 -3.0625 C 6.0625 -2.15625 7.242188 -1.703125 8.765625 -1.703125 C 10.367188 -1.703125 11.957031 -2.035156 13.53125 -2.703125 L 13.53125 -0.6875 C 12.726562 -0.34375 11.972656 -0.0976562 11.265625 0.046875 C 10.554688 0.191406 9.695312 0.265625 8.6875 0.265625 Z M 8.078125 -13.28125 C 6.878906 -13.28125 5.921875 -12.890625 5.203125 -12.109375 C 4.492188 -11.328125 4.078125 -10.25 3.953125 -8.875 L 11.75 -8.875 C 11.75 -10.300781 11.429688 -11.390625 10.796875 -12.140625 C 10.160156 -12.898438 9.253906 -13.28125 8.078125 -13.28125 Z M 8.078125 -13.28125 "/></g></g></g></svg>