<svg xmlns="http://www.w3.org/2000/svg" width="1366" zoomAndPan="magnify" viewBox="0 0 1024.5 451.499982" height="768"
     preserveAspectRatio="xMidYMid meet" version="1.0"><defs><clipPath id="b8376a14ba"><path d="M 331.777344 45.117188 L 693.054688 45.117188 L 693.054688 406.394531 L 331.777344 406.394531 Z M 331.777344 45.117188 " clip-rule="nonzero"/></clipPath></defs><g clip-path="url(#b8376a14ba)"><path fill="#ffffff" d="M 674.992188 394.351562 L 596.714844 394.351562 L 596.714844 267.90625 L 674.992188 267.90625 Z M 518.4375 322.097656 L 548.542969 322.097656 L 548.542969 394.351562 L 518.4375 394.351562 Z M 476.289062 322.097656 L 506.394531 322.097656 L 506.394531 394.351562 L 476.289062 394.351562 Z M 548.542969 310.054688 L 476.289062 310.054688 L 476.289062 298.011719 L 548.542969 298.011719 Z M 440.160156 261.882812 L 440.160156 171.5625 C 440.160156 168.246094 437.457031 165.542969 434.140625 165.542969 L 430.449219 165.542969 L 512.417969 112.503906 L 594.386719 165.542969 L 590.695312 165.542969 C 587.378906 165.542969 584.671875 168.246094 584.671875 171.5625 L 584.671875 394.351562 L 560.585938 394.351562 L 560.585938 291.988281 C 560.585938 288.671875 557.882812 285.96875 554.566406 285.96875 L 470.269531 285.96875 C 466.953125 285.96875 464.246094 288.671875 464.246094 291.988281 L 464.246094 394.351562 L 440.160156 394.351562 Z M 349.84375 267.90625 L 428.121094 267.90625 L 428.121094 394.351562 L 349.84375 394.351562 Z M 343.820312 213.714844 L 428.121094 213.714844 L 428.121094 255.863281 L 343.820312 255.863281 Z M 681.011719 213.714844 L 681.011719 255.863281 L 596.714844 255.863281 L 596.714844 213.714844 Z M 518.4375 58.855469 L 559.859375 69.203125 L 518.4375 79.550781 Z M 687.035156 201.671875 L 596.714844 201.671875 L 596.714844 177.585938 L 614.777344 177.585938 C 617.460938 177.585938 619.789062 175.820312 620.566406 173.257812 C 621.316406 170.71875 620.28125 167.964844 618.046875 166.507812 L 518.4375 102.0625 L 518.4375 91.972656 L 586.128906 75.035156 C 588.8125 74.378906 590.695312 71.976562 590.695312 69.203125 C 590.695312 66.425781 588.8125 64.027344 586.128906 63.371094 L 513.875 45.304688 C 512.089844 44.859375 510.183594 45.257812 508.722656 46.386719 C 507.242188 47.539062 506.394531 49.28125 506.394531 51.140625 L 506.394531 87.125 C 506.394531 87.21875 506.394531 87.3125 506.394531 87.382812 L 506.394531 102.0625 L 406.785156 166.507812 C 404.550781 167.964844 403.515625 170.71875 404.269531 173.257812 C 405.046875 175.820312 407.375 177.585938 410.054688 177.585938 L 428.121094 177.585938 L 428.121094 201.671875 L 337.800781 201.671875 C 334.484375 201.671875 331.777344 204.375 331.777344 207.691406 L 331.777344 261.882812 C 331.777344 265.199219 334.484375 267.90625 337.800781 267.90625 L 337.800781 400.371094 C 337.800781 403.6875 340.503906 406.394531 343.820312 406.394531 L 681.011719 406.394531 C 684.328125 406.394531 687.035156 403.6875 687.035156 400.371094 L 687.035156 267.90625 C 690.351562 267.90625 693.054688 265.199219 693.054688 261.882812 L 693.054688 207.691406 C 693.054688 204.375 690.351562 201.671875 687.035156 201.671875 " fill-opacity="1" fill-rule="nonzero"/></g><path fill="#ffffff" d="M 512.417969 177.585938 C 535.65625 177.585938 554.566406 196.496094 554.566406 219.734375 C 554.566406 242.972656 535.65625 261.882812 512.417969 261.882812 C 489.179688 261.882812 470.269531 242.972656 470.269531 219.734375 C 470.269531 196.496094 489.179688 177.585938 512.417969 177.585938 Z M 512.417969 273.925781 C 542.289062 273.925781 566.609375 249.605469 566.609375 219.734375 C 566.609375 189.863281 542.289062 165.542969 512.417969 165.542969 C 482.546875 165.542969 458.226562 189.863281 458.226562 219.734375 C 458.226562 249.605469 482.546875 273.925781 512.417969 273.925781 " fill-opacity="1" fill-rule="nonzero"/><path fill="#ffffff" d="M 494.351562 237.796875 C 495.507812 237.796875 496.660156 237.46875 497.691406 236.785156 L 515.757812 224.746094 C 517.425781 223.640625 518.4375 221.757812 518.4375 219.734375 L 518.4375 189.628906 C 518.4375 186.3125 515.734375 183.605469 512.417969 183.605469 C 509.101562 183.605469 506.394531 186.3125 506.394531 189.628906 L 506.394531 216.511719 L 491.011719 226.765625 C 488.238281 228.601562 487.507812 232.339844 489.34375 235.117188 C 490.496094 236.859375 492.402344 237.796875 494.351562 237.796875 " fill-opacity="1" fill-rule="nonzero"/><path fill="#ffffff" d="M 404.035156 322.097656 L 373.929688 322.097656 L 373.929688 291.988281 L 404.035156 291.988281 Z M 410.054688 279.949219 L 367.90625 279.949219 C 364.589844 279.949219 361.886719 282.652344 361.886719 285.96875 L 361.886719 328.117188 C 361.886719 331.433594 364.589844 334.140625 367.90625 334.140625 L 410.054688 334.140625 C 413.371094 334.140625 416.078125 331.433594 416.078125 328.117188 L 416.078125 285.96875 C 416.078125 282.652344 413.371094 279.949219 410.054688 279.949219 " fill-opacity="1" fill-rule="nonzero"/><path fill="#ffffff" d="M 620.800781 291.988281 L 650.90625 291.988281 L 650.90625 322.097656 L 620.800781 322.097656 Z M 614.777344 334.140625 L 656.929688 334.140625 C 660.242188 334.140625 662.949219 331.433594 662.949219 328.117188 L 662.949219 285.96875 C 662.949219 282.652344 660.242188 279.949219 656.929688 279.949219 L 614.777344 279.949219 C 611.460938 279.949219 608.757812 282.652344 608.757812 285.96875 L 608.757812 328.117188 C 608.757812 331.433594 611.460938 334.140625 614.777344 334.140625 " fill-opacity="1" fill-rule="nonzero"/></svg>