<svg xmlns="http://www.w3.org/2000/svg" width="1366" zoomAndPan="magnify" viewBox="0 0 1024.5 451.499982" height="768"
     preserveAspectRatio="xMidYMid meet" version="1.0"><defs><clipPath id="21d1156fdc"><path d="M 313.113281 62.796875 L 711 62.796875 L 711 388.09375 L 313.113281 388.09375 Z M 313.113281 62.796875 " clip-rule="nonzero"/></clipPath></defs><g clip-path="url(#21d1156fdc)"><path fill="#ffffff" d="M 378.734375 388.09375 C 376.875 388.09375 375.015625 387.164062 374.085938 385.535156 L 314.777344 283.925781 C 313.152344 281.367188 314.082031 278.109375 316.640625 276.714844 L 355.246094 254.160156 C 361.292969 250.671875 364.316406 259.277344 368.039062 265.554688 C 372.6875 262.300781 377.574219 258.8125 381.992188 255.554688 C 418.738281 229.515625 453.625 204.867188 505.488281 234.863281 C 509.210938 236.023438 565.027344 228.351562 590.84375 244.859375 C 609.449219 233.464844 643.171875 209.050781 661.542969 231.839844 C 681.3125 223.46875 701.546875 222.769531 710.152344 244.628906 C 711.082031 246.71875 710.382812 249.511719 708.292969 250.90625 C 690.382812 263.230469 674.570312 274.855469 660.613281 285.320312 C 592.238281 336.242188 557.585938 362.050781 443.390625 331.824219 L 416.179688 347.867188 C 418.972656 352.519531 423.390625 358.097656 422.460938 361.585938 C 421.996094 362.75 421.296875 363.910156 419.902344 364.609375 L 381.292969 387.398438 C 380.363281 387.863281 379.667969 388.09375 378.734375 388.09375 Z M 549.445312 224.398438 C 548.050781 224.398438 546.886719 223.933594 545.722656 223.003906 C 507.8125 185.101562 468.742188 145.804688 468.742188 105.8125 C 468.742188 82.09375 488.046875 62.796875 511.769531 62.796875 C 530.375 62.796875 541.070312 71.632812 549.445312 85.351562 C 558.050781 71.632812 568.515625 62.796875 587.355469 62.796875 C 611.074219 62.796875 630.378906 82.09375 630.378906 105.8125 C 630.378906 145.804688 591.074219 185.101562 553.164062 223.003906 C 552.234375 223.933594 550.839844 224.398438 549.445312 224.398438 Z M 511.769531 73.257812 C 493.859375 73.257812 479.207031 87.90625 479.207031 105.8125 C 479.207031 140.226562 514.324219 176.5 549.445312 211.609375 C 584.796875 176.5 619.914062 140.226562 619.914062 105.8125 C 619.914062 87.90625 605.261719 73.257812 587.355469 73.257812 C 572.003906 73.257812 563.863281 79.769531 554.328125 98.835938 C 552.234375 102.558594 546.652344 102.558594 544.792969 98.835938 C 535.257812 79.769531 526.886719 73.257812 511.769531 73.257812 Z M 373.386719 274.625 L 410.832031 338.566406 L 439.902344 321.59375 C 441.296875 320.894531 442.695312 320.664062 444.089844 321.128906 C 555.027344 350.890625 586.191406 327.636719 654.335938 276.714844 C 667.359375 267.183594 682.011719 256.253906 698.523438 244.628906 C 696.429688 241.140625 693.40625 238.816406 689.917969 237.652344 C 672.011719 232.535156 638.753906 256.019531 618.984375 270.207031 C 613.167969 274.15625 604.332031 281.367188 600.84375 281.367188 L 523.394531 281.597656 C 516.652344 281.597656 516.417969 271.136719 523.394531 271.136719 L 595.726562 270.671875 C 592.003906 232.304688 508.511719 249.046875 501.300781 244.859375 C 447.808594 213.003906 416.179688 245.324219 373.386719 274.625 Z M 404.550781 348.566406 C 388.503906 322.289062 371.992188 292.992188 356.175781 266.019531 L 326.640625 283.226562 L 380.597656 375.539062 L 410.132812 358.332031 Z M 599.214844 252.300781 C 602.472656 256.253906 604.796875 261.136719 605.726562 266.484375 C 620.144531 256.488281 635.03125 245.324219 651.542969 236.488281 C 638.984375 225.5625 612.472656 243.699219 599.214844 252.300781 Z M 599.214844 252.300781 " fill-opacity="1" fill-rule="evenodd"/></g></svg>