<svg xmlns="http://www.w3.org/2000/svg" width="1366" zoomAndPan="magnify" viewBox="0 0 1024.5 451.499982" height="768"
     preserveAspectRatio="xMidYMid meet" version="1.0"><defs><clipPath id="5c5184d63d"><path d="M 279.140625 57.5625 L 745.351562 57.5625 L 745.351562 379.863281 L 279.140625 379.863281 Z M 279.140625 57.5625 " clip-rule="nonzero"/></clipPath></defs><g clip-path="url(#5c5184d63d)"><path fill="#ffffff" d="M 742.1875 163.539062 L 514.683594 58.542969 C 513.222656 57.8125 511.273438 57.8125 509.8125 58.542969 L 282.550781 163.539062 C 280.359375 164.511719 279.140625 166.703125 279.140625 168.898438 C 279.140625 171.089844 280.359375 173.28125 282.550781 174.257812 L 377.792969 218.347656 L 377.792969 308.238281 C 377.792969 310.433594 379.007812 312.625 381.203125 313.597656 L 509.8125 373.039062 C 510.542969 373.527344 511.515625 373.527344 512.246094 373.527344 C 512.976562 373.527344 513.953125 373.28125 514.683594 373.039062 L 589.460938 338.445312 L 589.460938 373.769531 C 589.460938 376.9375 592.140625 379.617188 595.308594 379.617188 C 598.472656 379.617188 601.152344 376.9375 601.152344 373.769531 L 601.152344 333.085938 L 643.292969 313.597656 C 645.484375 312.625 646.703125 310.433594 646.703125 308.238281 L 646.703125 218.347656 L 741.941406 174.257812 C 744.136719 173.28125 745.351562 171.089844 745.351562 168.898438 C 745.351562 166.703125 744.136719 164.511719 742.1875 163.539062 Z M 512.246094 361.101562 L 389.484375 304.34375 L 389.484375 223.707031 L 509.8125 279.25 C 510.542969 279.496094 511.515625 279.738281 512.246094 279.738281 C 512.976562 279.738281 513.953125 279.496094 514.683594 279.25 L 589.460938 244.660156 L 589.460938 325.292969 Z M 635.011719 304.585938 L 601.398438 320.175781 L 601.398438 239.542969 L 635.011719 223.953125 Z M 601.398438 226.386719 L 601.398438 207.386719 C 601.398438 207.386719 601.398438 207.144531 601.398438 207.144531 C 601.398438 206.898438 601.398438 206.65625 601.398438 206.414062 C 601.398438 206.167969 601.398438 206.167969 601.152344 205.925781 C 601.152344 205.683594 601.152344 205.4375 600.910156 205.4375 C 600.910156 205.195312 600.667969 205.195312 600.667969 204.949219 C 600.667969 204.707031 600.421875 204.707031 600.421875 204.464844 C 600.421875 204.21875 600.179688 204.21875 600.179688 203.976562 C 600.179688 203.734375 599.9375 203.734375 599.9375 203.488281 C 599.691406 203.246094 599.691406 203.246094 599.449219 203.003906 C 599.207031 203.003906 599.207031 202.757812 598.960938 202.757812 C 598.71875 202.515625 598.472656 202.515625 598.230469 202.269531 C 598.230469 202.269531 597.988281 202.269531 597.988281 202.027344 L 597.742188 202.027344 L 514.683594 163.539062 C 511.761719 162.074219 508.105469 163.539062 506.886719 166.460938 C 505.425781 169.382812 506.886719 173.039062 509.8125 174.257812 L 589.460938 211.039062 L 589.460938 231.746094 L 512.246094 267.558594 L 298.871094 168.898438 L 512.246094 70.480469 L 725.625 169.140625 Z M 601.398438 226.386719 " fill-opacity="1" fill-rule="nonzero"/></g></svg>