<svg xmlns="http://www.w3.org/2000/svg" width="1366" zoomAndPan="magnify" viewBox="0 0 1024.5 576" height="768"
     preserveAspectRatio="xMidYMid meet" version="1.0"><defs><clipPath id="929d24cc29"><path d="M 122 99 L 903 99 L 903 481.878906 L 122 481.878906 Z M 122 99 " clip-rule="nonzero"/></clipPath><clipPath id="88acdc921d"><path d="M 122 105 L 903 105 L 903 481.878906 L 122 481.878906 Z M 122 105 " clip-rule="nonzero"/></clipPath></defs><g clip-path="url(#929d24cc29)"><path fill="#f7d3e4" d="M 389.585938 370.984375 C 379.265625 396.980469 347.410156 399.539062 335.535156 379.632812 C 333.589844 376.367188 331.890625 373.511719 330.398438 370.984375 L 206.738281 370.984375 C 198.664062 370.984375 191.515625 365.742188 189.097656 358.019531 L 160.417969 266.183594 C 160.730469 265.773438 161.09375 265.335938 161.453125 264.894531 L 122.46875 140.015625 C 120.535156 133.828125 125.171875 127.535156 131.65625 127.535156 L 148.714844 127.535156 C 149.015625 124.144531 149.753906 120.769531 151.117188 117.566406 C 160.699219 95.023438 194.34375 94.097656 201.445312 111.679688 C 201.445312 111.679688 223.371094 97.488281 247.449219 104.898438 C 261.367188 109.183594 269.09375 119.542969 273.148438 127.519531 L 478.363281 127.519531 C 485.855469 127.519531 492.46875 132.386719 494.699219 139.527344 L 496.816406 146.339844 L 562.945312 358.097656 C 564.941406 364.484375 560.164062 370.96875 553.472656 370.96875 L 389.585938 370.96875 Z M 902.25 115.085938 C 902.265625 114.332031 902.171875 113.59375 902.015625 112.886719 C 901.84375 112.179688 901.59375 111.492188 901.261719 110.832031 C 900.773438 109.859375 900.097656 108.980469 899.296875 108.226562 C 899.03125 107.972656 898.75 107.738281 898.449219 107.535156 C 896.972656 106.449219 895.136719 105.808594 893.09375 105.808594 L 693.691406 105.808594 C 687.488281 105.808594 681.894531 109.527344 679.476562 115.242188 L 676.082031 123.296875 L 674.214844 127.738281 C 669.582031 125.746094 663.753906 124.425781 656.433594 124.535156 C 628.238281 124.945312 610.128906 131.113281 597.359375 147.785156 C 584.605469 164.441406 590.355469 180.910156 590.355469 180.910156 C 590.355469 180.910156 591.894531 180.6875 594.203125 179.980469 C 592.160156 206.167969 594.21875 232.996094 603.109375 241.898438 C 608.746094 247.53125 615.988281 249.714844 622.804688 249.886719 L 549.421875 424.25 L 530.054688 470.277344 C 529.191406 472.332031 529.207031 474.484375 529.898438 476.351562 C 531.042969 479.476562 534.011719 481.847656 537.75 481.847656 L 737.292969 481.847656 C 742.429688 481.847656 747.191406 479.539062 750.363281 475.722656 C 751.414062 474.453125 752.3125 473.007812 752.96875 471.4375 L 772.304688 425.488281 L 778.589844 410.574219 L 790.257812 382.851562 L 801.378906 356.417969 L 802.226562 354.40625 L 819.082031 314.359375 L 901.511719 118.492188 C 902 117.363281 902.234375 116.214844 902.25 115.085938 Z M 902.25 115.085938 " fill-opacity="1" fill-rule="nonzero"/></g><g clip-path="url(#88acdc921d)"><path fill="#e66ea5" d="M 761.375 333.464844 C 761.375 333.464844 780.285156 336.433594 801.394531 356.433594 L 790.273438 382.867188 C 779.941406 375.222656 765.582031 360.136719 761.375 333.464844 Z M 821.800781 307.957031 L 845.644531 251.300781 C 836.785156 234.378906 827.988281 224.535156 827.988281 224.535156 C 817.777344 253.796875 819.019531 286.167969 821.800781 307.957031 Z M 781.054688 278.238281 C 781.054688 313.890625 793.714844 340.515625 802.242188 354.421875 L 819.097656 314.375 C 805.070312 288.472656 781.054688 278.238281 781.054688 278.238281 Z M 530.070312 470.277344 C 527.761719 475.769531 531.796875 481.863281 537.765625 481.863281 L 737.308594 481.863281 C 744.160156 481.863281 750.332031 477.765625 752.984375 471.453125 L 772.855469 424.25 L 549.4375 424.25 Z M 893.09375 105.808594 L 693.691406 105.808594 C 687.488281 105.808594 681.894531 109.527344 679.476562 115.242188 L 676.082031 123.296875 L 899.503906 123.296875 L 901.527344 118.492188 C 904.074219 112.480469 899.644531 105.808594 893.09375 105.808594 Z M 723.332031 179.261719 C 726.628906 172.683594 715.101562 167.738281 721.273438 154.160156 C 727.445312 140.578125 737.324219 139.355469 750.097656 139.355469 C 768.207031 139.355469 780.144531 139.355469 808.132812 139.355469 C 836.125 139.355469 835.308594 180.910156 799.496094 180.910156 C 763.683594 180.910156 763.273438 180.910156 750.097656 180.910156 C 736.917969 180.910156 718.398438 201.898438 715.523438 204.769531 C 712.648438 207.644531 709.761719 205.585938 712.226562 201.066406 C 714.675781 196.542969 720.03125 185.835938 723.332031 179.261719 Z M 792.898438 159.917969 C 792.898438 161.503906 794.1875 162.792969 795.773438 162.792969 C 797.359375 162.792969 798.648438 161.503906 798.648438 159.917969 C 798.648438 158.335938 797.359375 157.046875 795.773438 157.046875 C 794.1875 157.046875 792.898438 158.335938 792.898438 159.917969 Z M 769.839844 159.917969 C 769.839844 161.503906 771.128906 162.792969 772.714844 162.792969 C 774.300781 162.792969 775.589844 161.503906 775.589844 159.917969 C 775.589844 158.335938 774.300781 157.046875 772.714844 157.046875 C 771.128906 157.046875 769.839844 158.335938 769.839844 159.917969 Z M 746.375 159.917969 C 746.375 161.503906 747.660156 162.792969 749.246094 162.792969 C 750.835938 162.792969 752.121094 161.503906 752.121094 159.917969 C 752.121094 158.335938 750.835938 157.046875 749.246094 157.046875 C 747.660156 157.046875 746.375 158.335938 746.375 159.917969 Z M 553.472656 370.984375 L 208.183594 370.984375 C 200.109375 370.984375 192.960938 365.742188 190.542969 358.019531 L 122.46875 140.015625 L 124.449219 146.355469 L 496.816406 146.355469 L 562.945312 358.113281 C 564.941406 364.5 560.164062 370.984375 553.472656 370.984375 Z M 333.558594 221.003906 L 477.671875 221.003906 C 481.597656 221.003906 484.347656 217.125 483.058594 213.417969 L 474.640625 189.214844 C 473.070312 184.691406 468.8125 181.660156 464.019531 181.644531 L 319.5 181.160156 C 315.542969 181.144531 312.777344 185.054688 314.113281 188.773438 L 322.953125 213.5 C 324.542969 218.003906 328.796875 221.003906 333.558594 221.003906 Z M 546.71875 336.839844 C 537.65625 329.429688 511.316406 359.460938 511.316406 359.460938 C 511.316406 359.460938 504.734375 301.03125 489.5 301.863281 C 474.261719 302.695312 475.09375 359.871094 475.09375 359.871094 C 475.09375 359.871094 442.15625 312.964844 432.277344 319.132812 C 422.398438 325.300781 442.972656 365.632812 442.972656 365.632812 C 442.972656 365.632812 412.515625 356.164062 408.402344 363.167969 C 407.035156 365.503906 409.1875 368.300781 412.675781 370.984375 L 536.242188 370.984375 C 543.4375 359.195312 552.59375 341.628906 546.71875 336.839844 Z M 546.71875 336.839844 " fill-opacity="1" fill-rule="nonzero"/></g><path fill="#00b4dc" d="M 774.160156 396.179688 C 774.160156 396.179688 745.902344 421.03125 714.410156 424.71875 L 655.445312 424.71875 L 634.300781 344.328125 L 605.277344 340.011719 L 600.640625 339.085938 C 600.640625 339.085938 606.816406 295.570312 609.910156 284.15625 C 613.003906 272.742188 627.5 264.09375 644.480469 259.480469 C 661.460938 254.863281 683.074219 248.679688 683.074219 248.679688 C 683.074219 248.679688 703.761719 252.382812 721.980469 260.71875 C 740.199219 269.054688 744.835938 292.507812 746.671875 309.164062 C 748.523438 325.820312 746.984375 325.207031 746.984375 325.207031 Z M 308.269531 238.507812 C 289.121094 236.339844 271.214844 237.578125 271.214844 237.578125 C 271.214844 237.578125 268.339844 237.46875 259.480469 233.261719 L 260.09375 236.652344 L 259.78125 253.011719 L 250.828125 244.675781 L 221.800781 235.113281 L 221.34375 228.789062 C 214.71875 232.667969 204.191406 241.285156 204.191406 241.285156 C 204.191406 241.285156 189.992188 244.675781 177.945312 250.84375 C 169.902344 254.972656 163.667969 261.976562 160.402344 266.183594 L 189.082031 358.019531 C 191.484375 365.726562 198.632812 370.984375 206.722656 370.984375 L 305.519531 370.984375 C 307.90625 356.148438 312.257812 340.339844 312.257812 340.339844 L 318.429688 354.847656 L 359.394531 335.617188 L 362.269531 329.242188 C 362.269531 329.242188 355.78125 299.304688 349.609375 278.632812 C 343.46875 257.941406 327.414062 240.671875 308.269531 238.507812 Z M 308.269531 238.507812 " fill-opacity="1" fill-rule="nonzero"/><path fill="#cd6644" d="M 741.015625 338.898438 C 741.015625 338.898438 739.367188 359.054688 730.730469 372.226562 C 722.089844 385.394531 701.90625 388.269531 687.09375 377.167969 C 672.28125 366.054688 643.460938 303.527344 639.753906 298.175781 C 636.046875 292.824219 629.875 287.894531 627 282.949219 C 624.125 278.019531 623.292969 274.722656 624.941406 271.425781 C 626.589844 268.128906 633.582031 265.257812 633.582031 265.257812 C 633.582031 265.257812 631.113281 253.324219 630.707031 250.027344 C 630.675781 249.730469 630.660156 249.464844 630.660156 249.210938 C 622.035156 250.9375 611.007812 249.792969 603.125 241.898438 C 593.855469 232.632812 592.003906 203.9375 594.484375 176.796875 C 596.949219 149.636719 619.492188 130.578125 650.984375 131.128906 C 668.890625 131.441406 683.089844 139.464844 690.1875 154.582031 C 697.289062 169.699219 694.507812 190.375 690.1875 204.269531 C 685.871094 218.160156 678.769531 227.109375 679.695312 233.890625 C 680.625 240.671875 683.402344 249.007812 683.402344 249.007812 C 659.011719 265.976562 644.8125 259.808594 644.8125 259.808594 C 644.8125 259.808594 645.738281 255.789062 645.125 252.714844 C 644.511719 249.621094 643.882812 245.003906 634.929688 248.082031 C 634.539062 248.222656 634.113281 248.347656 633.707031 248.457031 C 634.066406 248.867188 634.445312 249.386719 634.835938 250.027344 C 637.460938 254.394531 639.359375 260.3125 639.359375 260.3125 L 641.828125 264.015625 C 641.828125 264.015625 649.242188 264.015625 651.707031 268.128906 C 654.171875 272.242188 658.289062 278.410156 661.585938 282.933594 C 664.882812 287.453125 714.691406 339.304688 714.691406 339.304688 Z M 604.347656 338.898438 L 604.757812 356.996094 C 604.757812 356.996094 603.109375 394.4375 601.050781 407.183594 C 598.992188 419.933594 598.175781 422.820312 594.878906 425.285156 C 591.578125 427.75 580.882812 431.046875 580.882812 433.511719 C 580.882812 435.976562 584.996094 434.328125 584.996094 434.328125 C 584.996094 434.328125 581.699219 436.792969 583.347656 437.625 C 584.996094 438.457031 589.113281 435.976562 589.113281 435.976562 C 589.113281 435.976562 585.816406 438.441406 588.296875 439.679688 C 590.761719 440.921875 594.878906 437.625 594.878906 437.625 C 594.878906 437.625 592.820312 441.738281 595.285156 441.328125 C 597.753906 440.921875 609.28125 436.382812 612.171875 435.976562 C 612.171875 435.976562 612.988281 441.328125 615.46875 441.738281 C 617.9375 442.144531 621.644531 432.269531 623.699219 427.339844 C 625.757812 422.414062 636.453125 399.773438 640.160156 367.6875 C 640.160156 367.6875 638.105469 354.109375 635.636719 343.417969 Z M 447.105469 253.324219 C 447.105469 253.324219 457.800781 247.5625 457.394531 244.691406 C 456.984375 241.816406 445.457031 247.15625 445.457031 247.15625 C 445.457031 247.15625 456.574219 240.578125 455.335938 238.097656 C 454.09375 235.632812 443.804688 241.394531 434.757812 245.097656 C 425.695312 248.804688 417.058594 249.210938 417.058594 249.210938 C 417.058594 249.210938 424.0625 241.394531 425.289062 240.578125 C 426.527344 239.761719 426.527344 236.058594 423.230469 237.28125 C 419.929688 238.523438 405.527344 243.859375 395.648438 256.214844 C 385.769531 268.550781 359.425781 335.617188 359.425781 335.617188 L 320.316406 353.714844 C 320.316406 353.714844 322.78125 358.238281 335.550781 379.632812 C 348.304688 401.03125 384.132812 396.511719 391.53125 364.832031 C 397.125 340.921875 404.710938 308.050781 407.585938 297.765625 C 410.460938 287.484375 420.339844 281.316406 428.160156 277.203125 C 435.984375 273.089844 456.558594 260.328125 456.558594 258.269531 C 456.558594 256.214844 447.496094 259.917969 447.496094 259.917969 C 447.496094 259.917969 458.617188 253.339844 458.195312 250.859375 C 457.769531 248.378906 447.105469 253.324219 447.105469 253.324219 Z M 248.378906 109.527344 C 223.371094 103.359375 195.585938 115.085938 190.324219 139.761719 C 185.078125 164.441406 197.109375 186.042969 205.136719 192.226562 C 213.160156 198.398438 219.648438 204.878906 219.648438 204.878906 L 221.816406 235.113281 L 250.84375 244.675781 L 259.796875 253.011719 L 260.109375 236.652344 L 257.941406 225.851562 C 257.941406 225.851562 272.140625 226.777344 278.628906 215.980469 C 285.117188 205.179688 286.042969 199.933594 283.261719 171.851562 C 280.484375 143.78125 273.382812 115.699219 248.378906 109.527344 Z M 248.378906 109.527344 " fill-opacity="1" fill-rule="nonzero"/><path fill="#000000" d="M 375.855469 208.601562 C 375.964844 209.117188 375.652344 209.496094 375.148438 209.496094 C 374.773438 209.496094 374.492188 209.324219 374.207031 209.039062 L 369.210938 204.0625 L 366.355469 209.023438 C 366.179688 209.308594 365.976562 209.496094 365.632812 209.496094 C 365.128906 209.496094 364.671875 209.101562 364.5625 208.617188 C 364.515625 208.363281 364.546875 208.160156 364.671875 207.988281 L 367.800781 202.777344 L 362.773438 197.894531 C 362.519531 197.675781 362.378906 197.4375 362.316406 197.1875 C 362.207031 196.636719 362.519531 196.292969 363.023438 196.292969 C 363.402344 196.292969 363.683594 196.464844 363.964844 196.75 L 368.710938 201.472656 L 371.410156 196.765625 C 371.585938 196.496094 371.789062 196.292969 372.132812 196.292969 C 372.636719 196.292969 373.09375 196.667969 373.203125 197.171875 C 373.25 197.421875 373.203125 197.628906 373.09375 197.800781 L 370.109375 202.730469 L 375.417969 207.878906 C 375.652344 208.113281 375.792969 208.347656 375.855469 208.601562 Z M 346.957031 209.667969 C 344.945312 209.667969 343.234375 208.914062 341.695312 207.910156 C 341.378906 207.707031 341.144531 207.453125 341.066406 207.109375 C 340.957031 206.589844 341.285156 206.152344 341.820312 206.152344 C 342.039062 206.152344 342.257812 206.230469 342.496094 206.355469 C 343.941406 207.359375 345.242188 207.863281 346.625 207.863281 C 349.78125 207.863281 351.226562 204.660156 350.207031 200.1875 C 349.578125 201.707031 348.273438 202.996094 345.839844 202.996094 C 342.226562 202.996094 339.242188 200.71875 338.566406 197.566406 L 338.550781 197.515625 C 337.84375 194.1875 339.871094 191.566406 343.59375 191.566406 C 345.605469 191.566406 347.222656 192.242188 348.589844 193.375 C 350.191406 194.691406 351.464844 196.652344 352.21875 200.15625 L 352.234375 200.203125 C 353.410156 205.742188 351.289062 209.667969 346.957031 209.667969 Z M 349.21875 197.328125 L 349.203125 197.28125 C 348.730469 195.054688 346.53125 193.308594 343.894531 193.308594 C 341.253906 193.308594 340.089844 195.242188 340.5625 197.40625 L 340.578125 197.453125 C 341.050781 199.683594 343.140625 201.285156 345.699219 201.285156 C 348.371094 201.285156 349.640625 199.339844 349.21875 197.328125 Z M 362.742188 328.394531 C 362.285156 328.144531 361.703125 328.332031 361.46875 328.789062 L 349.125 351.925781 C 348.871094 352.382812 349.042969 352.960938 349.515625 353.199219 C 349.65625 353.277344 349.8125 353.308594 349.957031 353.308594 C 350.285156 353.308594 350.617188 353.121094 350.789062 352.804688 L 363.132812 329.667969 C 363.371094 329.210938 363.195312 328.644531 362.742188 328.394531 Z M 394.078125 191.851562 L 383.804688 191.851562 C 383.300781 191.851562 382.957031 192.242188 383.066406 192.746094 C 383.175781 193.261719 383.679688 193.640625 384.179688 193.640625 L 393.023438 193.640625 L 388.800781 207.957031 C 388.769531 208.128906 388.753906 208.414062 388.785156 208.554688 C 388.894531 209.101562 389.460938 209.480469 389.976562 209.480469 C 390.402344 209.480469 390.667969 209.210938 390.777344 208.773438 L 395.113281 193.578125 C 395.207031 193.292969 395.253906 192.980469 395.207031 192.699219 C 395.097656 192.179688 394.640625 191.851562 394.078125 191.851562 Z M 312.289062 340.339844 L 318.460938 354.847656 L 319.453125 354.375 C 319.484375 333.921875 318.589844 306.589844 313.890625 296.199219 C 318.398438 317.042969 312.195312 339.039062 312.289062 340.339844 Z M 448.925781 259.289062 C 448.644531 258.851562 448.0625 258.726562 447.621094 259.007812 C 447.496094 259.085938 435.636719 266.683594 426.386719 265.035156 C 415.722656 263.152344 409.421875 265.914062 409.171875 266.023438 C 408.699219 266.246094 408.480469 266.792969 408.699219 267.265625 C 408.859375 267.609375 409.203125 267.816406 409.5625 267.816406 C 409.691406 267.816406 409.816406 267.785156 409.941406 267.734375 C 410.003906 267.703125 416.019531 265.097656 426.058594 266.871094 C 436.03125 268.632812 448.140625 260.890625 448.660156 260.5625 C 449.082031 260.3125 449.210938 259.730469 448.925781 259.289062 Z M 445.140625 246.261719 L 432.386719 250.890625 C 431.898438 251.066406 431.648438 251.613281 431.820312 252.101562 C 431.960938 252.476562 432.324219 252.730469 432.699219 252.730469 C 432.8125 252.730469 432.921875 252.714844 433.015625 252.664062 L 445.769531 248.035156 C 446.257812 247.863281 446.507812 247.3125 446.335938 246.824219 C 446.164062 246.339844 445.628906 246.089844 445.140625 246.261719 Z M 418.753906 197.628906 C 418.644531 197.125 418.125 196.699219 417.605469 196.699219 L 407.617188 196.699219 C 407.113281 196.699219 406.785156 197.125 406.894531 197.628906 C 407.003906 198.144531 407.523438 198.554688 408.007812 198.554688 L 418 198.554688 C 418.53125 198.554688 418.863281 198.160156 418.753906 197.628906 Z M 419.253906 204.410156 C 419.773438 204.410156 420.121094 204.015625 420.007812 203.484375 C 419.898438 202.980469 419.382812 202.554688 418.863281 202.554688 L 408.875 202.554688 C 408.371094 202.554688 408.039062 202.980469 408.152344 203.484375 C 408.261719 204.015625 408.777344 204.410156 409.28125 204.410156 Z M 259.984375 157.234375 C 260.253906 156.796875 260.109375 156.214844 259.671875 155.933594 C 249.492188 149.699219 242.441406 158.851562 242.378906 158.945312 C 242.0625 159.355469 242.140625 159.953125 242.566406 160.265625 C 242.738281 160.390625 242.925781 160.453125 243.132812 160.453125 C 243.414062 160.453125 243.695312 160.328125 243.886719 160.078125 C 244.136719 159.746094 249.980469 152.195312 258.695312 157.535156 C 259.136719 157.816406 259.71875 157.675781 259.984375 157.234375 Z M 433.359375 258.601562 C 433.503906 258.976562 433.863281 259.195312 434.242188 259.195312 C 434.351562 259.195312 434.460938 259.179688 434.585938 259.132812 L 447.449219 254.1875 C 447.9375 254 448.171875 253.449219 447.984375 252.964844 C 447.796875 252.476562 447.246094 252.226562 446.757812 252.429688 L 433.894531 257.375 C 433.40625 257.5625 433.171875 258.113281 433.359375 258.601562 Z M 252.085938 172.007812 C 252.085938 172.949219 252.839844 173.703125 253.78125 173.703125 C 254.722656 173.703125 255.476562 172.949219 255.476562 172.007812 C 255.476562 171.066406 254.722656 170.3125 253.78125 170.3125 C 252.839844 170.3125 252.085938 171.066406 252.085938 172.007812 Z M 279.289062 149.371094 C 274.230469 147.410156 270.632812 152.070312 269.441406 154.800781 C 269.238281 155.273438 269.457031 155.839844 269.925781 156.042969 C 270.054688 156.089844 270.179688 156.121094 270.304688 156.121094 C 270.664062 156.121094 271.011719 155.917969 271.167969 155.554688 C 271.277344 155.304688 273.949219 149.308594 278.613281 151.113281 C 279.101562 151.300781 279.648438 151.066406 279.839844 150.578125 C 280.011719 150.109375 279.761719 149.574219 279.289062 149.371094 Z M 218.265625 169.449219 C 218.722656 169.199219 218.894531 168.632812 218.644531 168.175781 C 218.390625 167.722656 217.828125 167.550781 217.371094 167.800781 C 214.84375 169.183594 213.242188 171.066406 212.597656 173.390625 C 211.496094 177.359375 213.679688 181.128906 213.773438 181.285156 C 213.945312 181.582031 214.261719 181.757812 214.589844 181.757812 C 214.75 181.757812 214.921875 181.710938 215.0625 181.628906 C 215.519531 181.363281 215.660156 180.78125 215.390625 180.34375 C 215.375 180.3125 213.523438 177.109375 214.402344 173.90625 C 214.890625 172.070312 216.191406 170.578125 218.265625 169.449219 Z M 268.640625 184.503906 C 268.121094 184.566406 267.761719 185.039062 267.824219 185.554688 C 267.886719 186.027344 268.292969 186.371094 268.75 186.371094 C 268.78125 186.371094 268.828125 186.371094 268.859375 186.371094 C 269.222656 186.324219 272.441406 185.886719 273.617188 184.171875 C 274.042969 183.5625 274.167969 182.855469 273.980469 182.117188 C 273.351562 179.621094 268.890625 167.421875 268.703125 166.90625 C 268.53125 166.417969 267.980469 166.167969 267.492188 166.339844 C 267.007812 166.511719 266.753906 167.0625 266.925781 167.550781 C 266.976562 167.675781 271.546875 180.1875 272.140625 182.574219 C 272.1875 182.777344 272.171875 182.933594 272.046875 183.105469 C 271.578125 183.828125 269.769531 184.363281 268.640625 184.503906 Z M 219.351562 192.070312 C 215.03125 190.21875 205.449219 180.1875 208.230469 171.238281 C 211.011719 162.289062 222.429688 162.902344 222.429688 162.902344 L 223.96875 174.941406 C 246.195312 158.585938 250.214844 117.550781 250.214844 117.550781 L 277.074219 137.910156 C 277.074219 137.910156 271.515625 112.308594 247.433594 104.898438 C 223.355469 97.488281 201.445312 111.679688 201.445312 111.679688 C 194.34375 94.097656 160.683594 95.023438 151.117188 117.535156 C 141.554688 140.0625 161.925781 169.683594 161.925781 169.683594 L 154.210938 172.460938 C 154.210938 172.460938 157.605469 181.726562 169.023438 182.949219 C 180.445312 184.171875 189.398438 175.539062 189.398438 175.539062 C 194.644531 187.582031 212.550781 202.699219 219.648438 204.847656 C 219.664062 196.84375 219.351562 192.070312 219.351562 192.070312 Z M 277.703125 168.003906 C 276.761719 168.003906 276.007812 168.757812 276.007812 169.699219 C 276.007812 170.640625 276.761719 171.394531 277.703125 171.394531 C 278.644531 171.394531 279.398438 170.640625 279.398438 169.699219 C 279.398438 168.757812 278.644531 168.003906 277.703125 168.003906 Z M 278.863281 246.90625 L 266.457031 239.007812 C 266.015625 238.726562 265.433594 238.851562 265.152344 239.289062 C 264.871094 239.730469 264.996094 240.3125 265.433594 240.59375 L 277.84375 248.488281 C 278 248.585938 278.175781 248.632812 278.347656 248.632812 C 278.660156 248.632812 278.960938 248.472656 279.148438 248.191406 C 279.429688 247.769531 279.289062 247.1875 278.863281 246.90625 Z M 262.230469 199.339844 C 258.398438 198.160156 254.832031 196.105469 252.429688 193.703125 C 251.265625 192.542969 250.953125 191.222656 251.25 190.796875 C 251.457031 190.484375 252.445312 190.234375 254.800781 191.222656 C 260.707031 193.703125 266.816406 194.644531 267.070312 194.675781 C 267.585938 194.753906 268.058594 194.394531 268.136719 193.890625 C 268.214844 193.375 267.855469 192.902344 267.351562 192.824219 C 267.289062 192.808594 261.226562 191.882812 255.539062 189.496094 C 251.878906 187.957031 250.339844 188.789062 249.695312 189.761719 C 248.800781 191.097656 249.382812 193.324219 251.109375 195.054688 C 253.71875 197.660156 257.582031 199.886719 261.679688 201.144531 C 261.777344 201.175781 261.871094 201.191406 261.964844 201.191406 C 262.371094 201.191406 262.734375 200.925781 262.859375 200.53125 C 263.015625 200.027344 262.734375 199.496094 262.230469 199.339844 Z M 243.742188 244.894531 L 230.25 263.765625 L 207.351562 243.042969 C 206.957031 242.699219 206.359375 242.730469 206.015625 243.105469 C 205.667969 243.496094 205.699219 244.078125 206.078125 244.441406 L 229.765625 265.867188 C 229.9375 266.023438 230.15625 266.121094 230.394531 266.121094 C 230.425781 266.121094 230.457031 266.121094 230.488281 266.121094 C 230.753906 266.089844 230.988281 265.945312 231.148438 265.726562 L 245.25 245.992188 C 245.550781 245.570312 245.457031 244.988281 245.03125 244.675781 C 244.625 244.378906 244.042969 244.472656 243.742188 244.894531 Z M 690.800781 144.707031 C 690.800781 144.707031 684.628906 124.144531 656.433594 124.550781 C 628.238281 124.960938 610.128906 131.128906 597.359375 147.800781 C 584.605469 164.457031 590.355469 180.925781 590.355469 180.925781 C 590.355469 180.925781 598.992188 179.683594 606.203125 173.71875 L 607.851562 179.886719 C 607.851562 179.886719 624.941406 177.832031 632.339844 169.808594 L 631.523438 176.183594 C 631.523438 176.183594 649.429688 176.796875 658.898438 168.160156 C 658.898438 168.160156 656.027344 181.742188 660.957031 189.558594 C 665.890625 197.375 669.597656 199.839844 669.597656 199.839844 L 672.472656 184.410156 C 672.472656 184.410156 686.464844 183.796875 685.226562 197.375 C 683.984375 210.957031 674.105469 213.214844 674.105469 213.214844 L 679.664062 233.890625 C 679.664062 233.890625 689.339844 217.328125 696.550781 199.023438 C 703.777344 180.703125 708.910156 156.011719 690.800781 144.707031 Z M 634.914062 248.066406 C 643.867188 244.972656 644.480469 249.605469 645.109375 252.695312 C 645.234375 253.339844 645.296875 254.015625 645.3125 254.691406 C 650.167969 251.691406 656.9375 246.746094 655.273438 243.433594 C 652.757812 238.394531 644.558594 244.707031 634.914062 248.066406 Z M 695.308594 302.023438 C 694.808594 301.988281 694.335938 302.351562 694.289062 302.871094 L 693.15625 315.269531 C 693.109375 315.789062 693.488281 316.246094 694.003906 316.292969 C 694.039062 316.292969 694.070312 316.292969 694.101562 316.292969 C 694.585938 316.292969 694.996094 315.929688 695.042969 315.445312 L 696.171875 303.042969 C 696.21875 302.523438 695.828125 302.070312 695.308594 302.023438 Z M 632.558594 201.472656 C 632.558594 202.492188 633.390625 203.324219 634.414062 203.324219 C 635.433594 203.324219 636.265625 202.492188 636.265625 201.472656 C 636.265625 200.453125 635.433594 199.621094 634.414062 199.621094 C 633.375 199.621094 632.558594 200.453125 632.558594 201.472656 Z M 628.144531 326.574219 L 625.570312 343.042969 L 634.269531 344.328125 L 635.652344 343.402344 L 631.207031 326.402344 C 630.753906 324.785156 628.398438 324.910156 628.144531 326.574219 Z M 439.644531 328.082031 C 439.34375 327.65625 438.765625 327.546875 438.339844 327.84375 C 437.914062 328.144531 437.804688 328.722656 438.105469 329.148438 C 438.261719 329.367188 453.527344 351.441406 458.980469 367.183594 C 459.121094 367.578125 459.480469 367.8125 459.875 367.8125 C 459.96875 367.8125 460.078125 367.796875 460.1875 367.765625 C 460.675781 367.59375 460.941406 367.058594 460.769531 366.574219 C 455.226562 350.578125 439.800781 328.300781 439.644531 328.082031 Z M 722.261719 347.796875 C 722.453125 347.972656 722.671875 348.066406 722.90625 348.066406 C 723.160156 348.066406 723.410156 347.972656 723.582031 347.765625 C 723.945312 347.390625 723.929688 346.792969 723.550781 346.433594 L 715.320312 338.613281 C 714.945312 338.253906 714.347656 338.269531 713.984375 338.644531 C 713.625 339.023438 713.640625 339.621094 714.015625 339.980469 Z M 788.5625 294.03125 C 788.3125 293.574219 787.730469 293.417969 787.273438 293.671875 C 786.820312 293.921875 786.664062 294.503906 786.914062 294.957031 L 807.300781 330.921875 C 807.472656 331.21875 807.789062 331.394531 808.117188 331.394531 C 808.277344 331.394531 808.433594 331.347656 808.574219 331.269531 C 809.03125 331.015625 809.1875 330.4375 808.933594 329.980469 Z M 830.988281 239.699219 C 830.925781 239.179688 830.46875 238.804688 829.953125 238.867188 C 829.433594 238.929688 829.054688 239.386719 829.117188 239.902344 L 832.511719 270.074219 C 832.574219 270.5625 832.96875 270.90625 833.453125 270.90625 C 833.484375 270.90625 833.515625 270.90625 833.5625 270.90625 C 834.082031 270.84375 834.460938 270.390625 834.394531 269.871094 Z M 772.085938 342.914062 C 771.742188 342.523438 771.144531 342.492188 770.75 342.835938 C 770.359375 343.183594 770.328125 343.777344 770.671875 344.171875 L 791.972656 368.113281 C 792.160156 368.316406 792.410156 368.425781 792.679688 368.425781 C 792.898438 368.425781 793.117188 368.347656 793.304688 368.191406 C 793.699219 367.84375 793.730469 367.25 793.386719 366.855469 Z M 713.953125 425.503906 L 772.320312 425.503906 L 778.605469 410.589844 L 771.488281 398.144531 C 771.488281 398.144531 739.589844 422.414062 713.953125 425.503906 Z M 644.074219 192.132812 C 644.355469 192.132812 644.652344 192.007812 644.828125 191.742188 C 645.140625 191.316406 645.046875 190.734375 644.621094 190.421875 C 634.914062 183.308594 626.105469 189.527344 626.007812 189.589844 C 625.585938 189.886719 625.492188 190.484375 625.804688 190.910156 C 626.105469 191.332031 626.699219 191.425781 627.125 191.128906 C 627.4375 190.910156 634.929688 185.664062 643.507812 191.945312 C 643.695312 192.070312 643.882812 192.132812 644.074219 192.132812 Z M 589.820312 428.363281 C 589.472656 427.96875 588.878906 427.953125 588.484375 428.300781 L 583.960938 432.414062 C 583.570312 432.757812 583.554688 433.355469 583.898438 433.746094 C 584.085938 433.949219 584.339844 434.0625 584.589844 434.0625 C 584.808594 434.0625 585.046875 433.980469 585.21875 433.808594 L 589.742188 429.695312 C 590.148438 429.335938 590.164062 428.753906 589.820312 428.363281 Z M 594.703125 429.949219 C 594.328125 429.601562 593.730469 429.617188 593.371094 429.996094 L 588.4375 435.347656 C 588.09375 435.726562 588.109375 436.320312 588.484375 436.683594 C 588.671875 436.855469 588.894531 436.933594 589.128906 436.933594 C 589.378906 436.933594 589.632812 436.839844 589.820312 436.636719 L 594.753906 431.28125 C 595.113281 430.90625 595.082031 430.308594 594.703125 429.949219 Z M 540.105469 339.652344 C 528.46875 350.671875 516.058594 366.132812 515.933594 366.273438 C 515.605469 366.683594 515.667969 367.28125 516.074219 367.59375 C 516.246094 367.734375 516.453125 367.796875 516.671875 367.796875 C 516.953125 367.796875 517.222656 367.671875 517.410156 367.453125 C 517.535156 367.296875 529.851562 351.941406 541.410156 341.015625 C 541.789062 340.65625 541.804688 340.058594 541.441406 339.683594 C 541.082031 339.304688 540.484375 339.289062 540.105469 339.652344 Z M 490.09375 314.09375 C 489.578125 314.109375 489.167969 314.53125 489.167969 315.050781 L 490.410156 366.886719 C 490.425781 367.40625 490.832031 367.796875 491.351562 367.796875 C 491.351562 367.796875 491.367188 367.796875 491.367188 367.796875 C 491.886719 367.78125 492.292969 367.359375 492.292969 366.839844 L 491.054688 315.003906 C 491.054688 314.484375 490.597656 314.0625 490.09375 314.09375 Z M 461.273438 211.804688 L 431.113281 211.804688 C 430.691406 211.804688 430.390625 212.148438 430.46875 212.570312 C 430.566406 213.027344 431.019531 213.371094 431.445312 213.371094 L 461.601562 213.371094 C 462.027344 213.371094 462.324219 213.027344 462.230469 212.570312 C 462.152344 212.148438 461.695312 211.804688 461.273438 211.804688 Z M 602.085938 430.355469 C 602.054688 430.386719 598.347656 433.667969 594.296875 436.902344 C 593.886719 437.230469 593.824219 437.8125 594.15625 438.21875 C 594.34375 438.457031 594.609375 438.566406 594.894531 438.566406 C 595.097656 438.566406 595.300781 438.503906 595.492188 438.363281 C 599.574219 435.097656 603.3125 431.785156 603.34375 431.753906 C 603.738281 431.40625 603.769531 430.8125 603.421875 430.417969 C 603.0625 430.042969 602.464844 430.011719 602.085938 430.355469 Z M 618.0625 212.777344 C 618.015625 212.257812 617.542969 211.882812 617.023438 211.929688 C 615.832031 212.054688 614.417969 211.898438 614.214844 211.613281 C 614.464844 210.328125 617.007812 204.378906 618.660156 200.703125 C 618.863281 200.234375 618.660156 199.667969 618.1875 199.464844 C 617.714844 199.261719 617.152344 199.464844 616.945312 199.933594 C 616.523438 200.894531 612.753906 209.355469 612.375 211.253906 C 612.25 211.867188 612.40625 212.429688 612.800781 212.871094 C 613.539062 213.6875 615.03125 213.859375 616.128906 213.859375 C 616.601562 213.859375 616.992188 213.828125 617.230469 213.8125 C 617.746094 213.75 618.125 213.277344 618.0625 212.777344 Z M 601.632812 191.742188 C 601.898438 191.535156 608.371094 186.734375 615.910156 192.761719 C 616.082031 192.902344 616.285156 192.964844 616.507812 192.964844 C 616.789062 192.964844 617.054688 192.839844 617.246094 192.605469 C 617.574219 192.195312 617.511719 191.597656 617.101562 191.285156 C 608.386719 184.316406 600.578125 190.1875 600.5 190.25 C 600.09375 190.5625 600.015625 191.160156 600.328125 191.566406 C 600.625 191.976562 601.222656 192.054688 601.632812 191.742188 Z M 607.035156 199.417969 C 606.015625 199.417969 605.179688 200.25 605.179688 201.269531 C 605.179688 202.289062 606.015625 203.121094 607.035156 203.121094 C 608.054688 203.121094 608.886719 202.289062 608.886719 201.269531 C 608.886719 200.25 608.054688 199.417969 607.035156 199.417969 Z M 630.738281 219.964844 C 630.957031 219.496094 630.738281 218.929688 630.265625 218.726562 C 629.792969 218.507812 629.230469 218.726562 629.023438 219.195312 C 626.480469 224.832031 619.035156 223.65625 618.722656 223.59375 C 618.203125 223.515625 617.714844 223.859375 617.636719 224.363281 C 617.542969 224.878906 617.890625 225.367188 618.40625 225.445312 C 618.4375 225.445312 619.269531 225.585938 620.511719 225.585938 C 623.402344 225.585938 628.539062 224.847656 630.738281 219.964844 Z M 243.996094 222.007812 C 235.027344 216.621094 247.027344 233.324219 259.59375 234.015625 L 257.957031 225.851562 C 257.941406 225.851562 253.449219 227.691406 243.996094 222.007812 Z M 243.996094 222.007812 " fill-opacity="1" fill-rule="nonzero"/></svg>