<svg xmlns="http://www.w3.org/2000/svg" width="1366" zoomAndPan="magnify" viewBox="0 0 1024.5 576" height="768"
     preserveAspectRatio="xMidYMid meet" version="1.0"><path fill="#00b4dc" d="M 799.914062 340.222656 L 808.804688 297.367188 C 810.46875 289.351562 804.351562 281.832031 796.175781 281.832031 L 783.609375 281.832031 C 786.660156 274.839844 788.664062 266.136719 787.410156 256.046875 C 784.210938 230.210938 753.144531 201.421875 712.960938 222.761719 C 706.847656 215.519531 702.011719 210.765625 700.152344 211.222656 C 693.664062 212.839844 702.445312 227.699219 703.496094 229.4375 C 700.261719 231.757812 697.730469 234.207031 696.136719 236.5 C 686.949219 249.71875 684.078125 253.160156 671.742188 266.089844 C 667.976562 270.023438 665.023438 275.660156 662.925781 281.820312 L 646.027344 281.820312 C 645.992188 278.449219 645.425781 275.117188 644.242188 272.050781 C 638.839844 257.976562 623.441406 254.765625 620.414062 254.269531 L 619.207031 252.109375 C 619.085938 251.878906 618.882812 251.734375 618.652344 251.664062 C 620.484375 250.832031 622.222656 250.035156 623.523438 249.429688 C 627.832031 247.414062 626.394531 244.261719 626.394531 244.261719 C 626.394531 244.261719 629.265625 242.828125 628.976562 240.242188 C 628.6875 237.660156 624.089844 237.660156 624.089844 237.660156 C 624.089844 237.660156 627.816406 235.367188 626.671875 232.492188 C 625.527344 229.621094 620.351562 229.910156 620.351562 229.910156 C 620.351562 229.910156 622.933594 228.472656 621.5 225.890625 C 620.0625 223.308594 613.46875 223.597656 602.261719 224.742188 C 591.070312 225.890625 586.765625 227.617188 584.183594 232.214844 C 581.605469 236.816406 567.253906 268.695312 563.804688 275.3125 C 563.320312 276.242188 561.707031 278.558594 559.28125 281.855469 L 554.976562 281.855469 L 581.628906 153.363281 C 583.292969 145.347656 577.179688 137.828125 569 137.828125 L 500.488281 137.828125 C 498.414062 132.261719 493.058594 128.265625 486.777344 128.265625 C 486.304688 128.265625 485.835938 128.289062 485.378906 128.324219 C 485.390625 128.074219 485.402344 127.808594 485.414062 127.542969 C 485.582031 127.503906 485.75 127.433594 485.882812 127.300781 C 486.269531 126.914062 486.269531 126.296875 485.882812 125.910156 C 485.761719 125.789062 485.628906 125.683594 485.5 125.5625 C 485.605469 122.773438 485.644531 119.816406 485.535156 116.75 C 487.148438 112.234375 493.191406 91.421875 473.617188 75.558594 C 451.535156 57.667969 400.558594 48.722656 362.183594 105.546875 C 354.429688 117.027344 349.917969 127.855469 347.871094 137.800781 L 283.855469 137.800781 C 271.433594 137.800781 260.746094 146.589844 258.347656 158.796875 L 257.503906 163.09375 C 256.574219 167.800781 253.65625 171.878906 249.496094 174.28125 L 225.183594 188.285156 C 222.554688 189.808594 222.214844 193.476562 224.542969 195.433594 L 239.835938 208.324219 C 244.453125 212.226562 246.601562 218.332031 245.429688 224.261719 L 231.949219 292.609375 C 220.515625 292.621094 211.894531 292.839844 211.894531 292.839844 L 230.898438 297.921875 L 230.875 298.019531 L 211.796875 292.960938 C 210.433594 292.597656 209.335938 294.109375 210.109375 295.289062 L 226.4375 320.507812 L 222.792969 338.953125 C 221.214844 346.933594 227.316406 354.371094 235.445312 354.371094 L 248.363281 354.371094 L 248.675781 354.863281 L 419.167969 354.863281 L 418.699219 354.371094 L 474.4375 354.371094 C 474.570312 354.515625 474.742188 354.625 474.945312 354.671875 C 475.007812 354.683594 475.078125 354.695312 475.136719 354.695312 C 475.1875 354.695312 475.234375 354.683594 475.285156 354.671875 L 449.957031 482.996094 C 448.378906 490.972656 454.480469 498.410156 462.609375 498.410156 L 588.625 498.410156 L 588.5625 498.699219 L 680.148438 498.699219 C 685.875 498.699219 691.230469 501.550781 694.4375 506.292969 L 706.449219 524.050781 C 708.292969 526.777344 711.695312 527.589844 714.457031 526.453125 C 715.832031 526.089844 717.121094 525.304688 718.074219 524.039062 L 732.1875 505.292969 C 734.175781 502.648438 736.839844 500.691406 739.855469 499.546875 C 741.53125 499.003906 743.292969 498.699219 745.101562 498.699219 C 748.164062 498.699219 751.109375 498.144531 753.859375 497.167969 C 762.25 494.488281 768.894531 487.640625 771.140625 478.792969 C 778.160156 460.820312 800.699219 402.753906 807.210938 382.472656 C 814.964844 358.328125 799.914062 340.222656 799.914062 340.222656 Z M 769.171875 300.675781 L 769.621094 301.15625 Z M 770.019531 300.820312 C 770.003906 300.832031 769.992188 300.84375 769.96875 300.855469 C 769.980469 300.84375 769.992188 300.832031 770.019531 300.820312 Z M 769.726562 301.0625 C 769.714844 301.074219 769.703125 301.085938 769.691406 301.097656 C 769.703125 301.085938 769.726562 301.0625 769.726562 301.0625 Z M 602.289062 279.320312 C 608.316406 272.714844 608.316406 256.335938 608.316406 256.335938 C 608.316406 256.335938 612.972656 254.257812 617.484375 252.207031 C 617.363281 252.472656 617.351562 252.796875 617.507812 253.074219 L 618.941406 255.660156 C 619.085938 255.925781 619.363281 256.117188 619.664062 256.152344 C 619.835938 256.179688 636.960938 258.566406 642.410156 272.777344 C 643.507812 275.613281 644.039062 278.714844 644.074219 281.84375 L 639.683594 281.84375 C 639.214844 275.46875 636.152344 270.421875 636.152344 270.421875 C 636.152344 270.421875 629.710938 278.269531 619.230469 281.84375 L 599.539062 281.84375 C 600.476562 281.117188 601.394531 280.296875 602.289062 279.320312 Z M 486.777344 130.222656 C 491.960938 130.222656 496.425781 133.347656 498.390625 137.828125 L 484.773438 137.828125 C 484.894531 135.664062 485.089844 133.140625 485.269531 130.328125 C 485.761719 130.257812 486.269531 130.222656 486.777344 130.222656 Z M 588.730469 216.148438 C 588.5625 215.640625 588.828125 215.085938 589.324219 214.90625 L 601.382812 210.59375 C 601.878906 210.425781 602.433594 210.667969 602.625 211.164062 L 607.21875 222.945312 C 607.414062 223.453125 607.171875 224.019531 606.664062 224.210938 C 606.160156 224.40625 605.589844 224.164062 605.398438 223.65625 L 601.152344 212.769531 L 590.902344 216.4375 L 593.75 224.71875 C 593.929688 225.226562 593.652344 225.78125 593.144531 225.960938 C 593.039062 226 592.929688 226.011719 592.832031 226.011719 C 592.421875 226.011719 592.046875 225.757812 591.902344 225.347656 Z M 588.730469 216.148438 " fill-opacity="1" fill-rule="nonzero"/><path fill="#99e1f1" d="M 703.601562 229.621094 C 703.601562 229.621094 693.269531 212.960938 700.152344 211.234375 C 707.039062 209.507812 754.980469 279.609375 757.269531 282.773438 C 759.5625 285.933594 758.707031 289.097656 758.707031 289.097656 Z M 796.175781 281.84375 L 783.609375 281.84375 C 778.242188 294.144531 769.621094 301.15625 769.621094 301.15625 L 751.929688 281.84375 L 511.027344 281.84375 C 499.996094 281.84375 490.347656 288.796875 486.632812 298.886719 L 485.207031 283.398438 L 546.703125 267.089844 C 546.703125 267.089844 546.703125 239.207031 541.976562 219.734375 C 537.246094 200.261719 520.4375 177.589844 498.871094 179.75 C 472.59375 182.382812 464.707031 189.746094 464.707031 189.746094 L 362.738281 195.011719 C 362.738281 195.011719 312.28125 202.90625 296.503906 230.261719 C 280.730469 257.613281 263.390625 294.976562 263.390625 294.976562 L 286.519531 311.816406 L 282.902344 354.394531 L 475.34375 354.394531 L 449.957031 482.996094 C 448.378906 490.972656 454.480469 498.410156 462.609375 498.410156 L 534.691406 498.410156 C 512.175781 491.347656 487.753906 478.261719 469.433594 454.238281 C 469.433594 454.238281 523.292969 438.378906 577.152344 464.390625 C 577.152344 464.390625 527.730469 418.726562 518.230469 361.636719 C 518.230469 361.636719 598.523438 383.824219 621.34375 445.996094 C 621.34375 445.996094 587.296875 347.695312 608.835938 307.097656 C 608.835938 307.097656 658.898438 355.300781 654.457031 426.96875 C 654.457031 426.96875 673.464844 344.519531 712.757812 315.96875 C 722.898438 353.390625 718.460938 422.527344 691.84375 447.261719 C 679.6875 458.5625 677.84375 479.265625 679.433594 498.410156 L 681.003906 498.410156 C 686.730469 498.410156 692.085938 501.257812 695.292969 506.003906 L 707.304688 523.761719 C 709.851562 527.527344 715.335938 527.660156 718.074219 524.039062 L 732.1875 505.292969 C 735.441406 500.957031 740.542969 498.410156 745.957031 498.410156 C 758.285156 498.410156 768.921875 489.753906 771.417969 477.671875 L 808.804688 297.378906 C 810.46875 289.363281 804.351562 281.84375 796.175781 281.84375 Z M 796.175781 281.84375 " fill-opacity="1" fill-rule="nonzero"/><path fill="#e66ea5" d="M 807.210938 382.460938 C 799.457031 406.59375 769.039062 484.164062 769.039062 484.164062 L 769.078125 482.71875 C 765.097656 492.242188 755.738281 498.6875 745.101562 498.6875 C 739.6875 498.6875 734.585938 501.234375 731.328125 505.570312 L 717.21875 524.316406 C 714.480469 527.949219 708.992188 527.804688 706.449219 524.039062 L 694.4375 506.28125 C 691.230469 501.539062 685.875 498.6875 680.148438 498.6875 L 588.5625 498.6875 L 602.855469 432.449219 C 602.855469 432.449219 567.265625 444.523438 551.769531 449.6875 C 536.269531 454.855469 519.628906 459.746094 495.507812 451.703125 C 471.398438 443.664062 470.253906 414.066406 474.835938 401.136719 C 479.433594 388.207031 488.609375 373.84375 499.523438 358.621094 C 524.210938 363.21875 545.449219 377.292969 545.449219 377.292969 L 540.5625 391.082031 C 540.5625 391.082031 566.6875 374.421875 582.183594 364.933594 C 597.679688 355.457031 631.835938 342.804688 651.359375 344.242188 C 670.871094 345.679688 723.40625 347.113281 723.40625 347.113281 C 723.40625 347.113281 754.980469 333.894531 772.765625 332.75 C 783.898438 332.023438 793.449219 336.816406 799.046875 340.511719 L 798.503906 343.105469 L 799.902344 340.222656 C 799.914062 340.222656 814.964844 358.328125 807.210938 382.460938 Z M 631.558594 298.851562 C 646.753906 287.867188 636.152344 270.410156 636.152344 270.410156 C 636.152344 270.410156 628.398438 279.886719 616.058594 282.761719 C 603.722656 285.632812 598.839844 292.238281 598.839844 292.238281 C 600.5625 301.15625 616.058594 310.066406 631.558594 298.851562 Z M 283.699219 312.070312 L 211.785156 292.984375 C 210.421875 292.621094 209.324219 294.132812 210.09375 295.316406 L 248.675781 354.878906 L 419.167969 354.878906 L 357.746094 291.378906 Z M 283.699219 312.070312 " fill-opacity="1" fill-rule="nonzero"/><path fill="#faae8d" d="M 623.523438 249.441406 C 618.773438 251.664062 608.316406 256.335938 608.316406 256.335938 C 608.316406 256.335938 608.316406 272.714844 602.289062 279.320312 C 596.257812 285.921875 589.082031 285.644531 585.921875 293.683594 C 582.761719 301.726562 545.449219 378.152344 545.449219 378.152344 C 517.601562 362.640625 499.234375 359.1875 499.234375 359.1875 C 499.234375 359.1875 560.367188 281.902344 563.816406 275.300781 C 567.265625 268.695312 581.617188 236.804688 584.195312 232.203125 C 586.777344 227.605469 591.082031 225.878906 602.273438 224.730469 C 613.46875 223.585938 620.074219 223.292969 621.511719 225.878906 C 622.945312 228.460938 620.363281 229.898438 620.363281 229.898438 C 620.363281 229.898438 625.527344 229.609375 626.683594 232.480469 C 627.84375 235.355469 624.105469 237.648438 624.105469 237.648438 C 624.105469 237.648438 628.699219 237.648438 628.988281 240.230469 C 629.277344 242.816406 626.40625 244.25 626.40625 244.25 C 626.40625 244.25 627.832031 247.425781 623.523438 249.441406 Z M 610.8125 498.410156 L 677.386719 498.410156 L 670.59375 479.289062 Z M 703.773438 229.246094 C 700.40625 231.625 697.789062 234.148438 696.136719 236.511719 C 686.949219 249.730469 684.078125 253.171875 671.742188 266.101562 C 659.402344 279.03125 655.664062 310.054688 662.839844 318.964844 C 670.015625 327.871094 686.382812 328.730469 686.382812 328.730469 L 680.351562 345.386719 C 680.351562 345.386719 690.976562 362.628906 724.261719 346.824219 L 729.144531 327.003906 C 729.144531 327.003906 746.078125 317.238281 757.269531 311.203125 C 760.273438 309.582031 764.746094 305.867188 769.171875 300.664062 Z M 484.679688 140.820312 C 484.679688 128.722656 491.515625 95.574219 468.386719 77.683594 C 445.253906 59.792969 395.84375 61.894531 375.355469 97.144531 C 354.851562 132.394531 397.953125 191.328125 397.953125 191.328125 C 397.953125 191.328125 381.660156 191.859375 362.738281 195.011719 C 362.738281 195.011719 390.597656 252.363281 413.730469 248.148438 C 415.261719 247.871094 416.757812 247.4375 418.226562 246.894531 C 418.132812 246.957031 418.035156 247.027344 417.9375 247.101562 C 411.101562 251.3125 313.859375 292.875 313.859375 292.875 L 358.011719 291.296875 L 381.144531 314.96875 C 381.144531 314.96875 414.777344 288.664062 420.566406 283.929688 C 426.34375 279.199219 445.796875 273.9375 450.523438 271.835938 C 455.25 269.734375 463.140625 261.839844 462.089844 259.207031 C 461.039062 256.578125 458.410156 257.625 458.410156 257.625 C 458.410156 257.625 462.621094 252.894531 462.089844 250.261719 C 461.558594 247.632812 457.878906 247.113281 457.878906 247.113281 C 457.878906 247.113281 460.507812 244.480469 459.980469 241.847656 C 459.449219 239.21875 456.832031 237.117188 456.832031 237.117188 C 456.832031 237.117188 459.460938 230.804688 453.152344 231.335938 C 446.847656 231.867188 436.328125 235.546875 436.328125 235.546875 C 436.328125 235.546875 436.292969 234.75 436.234375 233.484375 C 446.726562 221.640625 453.152344 207.128906 453.152344 207.128906 C 453.152344 207.128906 471.542969 206.082031 480.480469 187.660156 C 489.40625 169.226562 484.679688 152.917969 484.679688 140.820312 Z M 541.144531 281.84375 L 539.707031 268.695312 L 485.195312 283.410156 L 486.316406 299.152344 C 486.316406 299.152344 494.097656 281.84375 511.015625 281.84375 C 527.949219 281.84375 541.144531 281.84375 541.144531 281.84375 Z M 541.144531 281.84375 " fill-opacity="1" fill-rule="nonzero"/><path fill="#000000" d="M 706.761719 275.15625 C 706.761719 273.960938 707.726562 273.007812 708.921875 273.007812 C 710.117188 273.007812 711.070312 273.972656 711.070312 275.15625 C 711.070312 276.351562 710.105469 277.304688 708.921875 277.304688 C 707.714844 277.316406 706.761719 276.351562 706.761719 275.15625 Z M 691.253906 261.367188 C 692.449219 261.367188 693.402344 260.402344 693.402344 259.21875 C 693.402344 258.023438 692.4375 257.070312 691.253906 257.070312 C 690.058594 257.070312 689.105469 258.039062 689.105469 259.21875 C 689.105469 260.402344 690.070312 261.367188 691.253906 261.367188 Z M 712.40625 263.058594 C 712.851562 263.105469 723.476562 264.289062 722.429688 275.492188 C 722.378906 276.035156 722.777344 276.507812 723.308594 276.554688 C 723.34375 276.554688 723.371094 276.554688 723.40625 276.554688 C 723.898438 276.554688 724.335938 276.167969 724.382812 275.660156 C 725.613281 262.492188 712.722656 261.101562 712.601562 261.089844 C 712.058594 261.042969 711.585938 261.429688 711.539062 261.972656 C 711.480469 262.527344 711.863281 263 712.40625 263.058594 Z M 695.027344 244.964844 C 695.113281 244.976562 702.242188 244.804688 704.074219 255.078125 C 704.15625 255.550781 704.566406 255.886719 705.039062 255.886719 C 705.097656 255.886719 705.160156 255.886719 705.207031 255.875 C 705.738281 255.78125 706.085938 255.273438 705.992188 254.742188 C 703.855469 242.828125 695.015625 243.007812 694.945312 243.019531 C 694.402344 243.042969 693.980469 243.492188 694.003906 244.035156 C 694.027344 244.554688 694.484375 245 695.027344 244.964844 Z M 679.496094 284.039062 C 679.6875 284.039062 679.882812 283.980469 680.0625 283.859375 C 680.507812 283.542969 680.605469 282.941406 680.304688 282.496094 C 680.28125 282.445312 677.335938 278.210938 679.375 275.953125 C 681.414062 273.683594 694.195312 265.992188 698.949219 263.214844 C 699.417969 262.9375 699.574219 262.347656 699.296875 261.875 C 699.03125 261.40625 698.429688 261.25 697.960938 261.527344 C 697.246094 261.9375 680.582031 271.691406 677.914062 274.648438 C 674.851562 278.0625 678.542969 283.398438 678.699219 283.628906 C 678.878906 283.894531 679.183594 284.039062 679.496094 284.039062 Z M 683.910156 300.46875 C 683.378906 300.421875 682.882812 300.796875 682.824219 301.328125 C 682.765625 301.859375 683.148438 302.351562 683.679688 302.414062 C 684.402344 302.496094 685.117188 302.535156 685.804688 302.535156 C 690.746094 302.535156 694.511719 300.492188 696.066406 298.367188 C 696.886719 297.246094 697.089844 296.085938 696.65625 295.121094 C 696.320312 294.386719 695.488281 293.480469 693.351562 293.285156 C 687.382812 292.742188 683.222656 290.027344 683.1875 290.003906 C 682.738281 289.714844 682.125 289.835938 681.835938 290.28125 C 681.535156 290.726562 681.652344 291.34375 682.101562 291.632812 C 682.28125 291.753906 686.683594 294.652344 693.171875 295.242188 C 694.074219 295.328125 694.714844 295.582031 694.871094 295.941406 C 695.003906 296.230469 694.859375 296.714844 694.472656 297.222656 C 693.292969 298.875 689.480469 301.109375 683.910156 300.46875 Z M 704.460938 334.199219 C 704.460938 329.597656 696.136719 329.597656 686.382812 328.742188 L 681.992188 340.886719 C 690.53125 339.738281 704.460938 337.386719 704.460938 334.199219 Z M 726.855469 298.851562 C 726.46875 301.953125 735.226562 297.476562 740.964844 294.226562 C 744.292969 292.34375 748.550781 293.347656 750.625 296.558594 C 752.722656 299.816406 753.929688 304.210938 750.105469 308.617188 C 742.640625 317.238281 731.449219 316.65625 731.449219 316.65625 L 729.160156 327.003906 C 729.160156 327.003906 762.433594 317.140625 769.1875 300.664062 C 761.296875 291.378906 741.207031 269.832031 741.207031 269.832031 C 741.207031 269.832031 727.421875 294.265625 726.855469 298.851562 Z M 739.890625 384.007812 C 739.386719 383.847656 738.832031 384.140625 738.675781 384.65625 L 714.867188 461.578125 L 670.257812 478.359375 C 669.75 478.550781 669.496094 479.109375 669.691406 479.613281 C 669.835938 480.011719 670.210938 480.253906 670.605469 480.253906 C 670.726562 480.253906 670.835938 480.230469 670.945312 480.195312 L 716 463.246094 C 716.277344 463.136719 716.496094 462.90625 716.59375 462.617188 L 740.542969 385.238281 C 740.699219 384.71875 740.410156 384.175781 739.890625 384.007812 Z M 595.316406 233.074219 C 595.449219 233.496094 595.835938 233.761719 596.246094 233.761719 C 596.339844 233.761719 596.4375 233.75 596.535156 233.710938 C 596.65625 233.675781 608.535156 230.042969 619.097656 231.164062 C 619.628906 231.214844 620.113281 230.828125 620.171875 230.296875 C 620.234375 229.753906 619.835938 229.28125 619.304688 229.222656 C 608.339844 228.074219 596.449219 231.695312 595.957031 231.839844 C 595.449219 232 595.160156 232.554688 595.316406 233.074219 Z M 597.546875 239.941406 C 597.066406 240.183594 596.859375 240.761719 597.089844 241.246094 C 597.257812 241.59375 597.609375 241.800781 597.96875 241.800781 C 598.113281 241.800781 598.257812 241.765625 598.390625 241.703125 C 598.476562 241.667969 607.257812 237.515625 622.015625 238.347656 C 622.511719 238.359375 623.019531 237.960938 623.054688 237.429688 C 623.089844 236.886719 622.667969 236.429688 622.136719 236.390625 C 606.859375 235.535156 597.921875 239.761719 597.546875 239.941406 Z M 601.9375 247.667969 C 601.429688 247.859375 601.175781 248.414062 601.359375 248.921875 C 601.503906 249.320312 601.878906 249.5625 602.273438 249.5625 C 602.382812 249.5625 602.503906 249.539062 602.613281 249.503906 C 602.734375 249.453125 614.902344 244.988281 624.054688 245.253906 C 624.644531 245.289062 625.042969 244.84375 625.054688 244.300781 C 625.070312 243.757812 624.644531 243.308594 624.105469 243.296875 C 614.589844 242.996094 602.457031 247.472656 601.9375 247.667969 Z M 706.449219 524.039062 C 708.996094 527.804688 714.480469 527.9375 717.21875 524.316406 L 727.785156 510.277344 L 698.066406 511.640625 Z M 453.140625 141.351562 C 451.984375 141.351562 451.042969 142.292969 451.042969 143.453125 C 451.042969 144.609375 451.984375 145.550781 453.140625 145.550781 C 454.300781 145.550781 455.238281 144.609375 455.238281 143.453125 C 455.238281 142.292969 454.296875 141.351562 453.140625 141.351562 Z M 479.417969 138.1875 C 478.261719 138.1875 477.320312 139.128906 477.320312 140.289062 C 477.320312 141.449219 478.261719 142.390625 479.417969 142.390625 C 480.578125 142.390625 481.519531 141.449219 481.519531 140.289062 C 481.53125 139.128906 480.578125 138.1875 479.417969 138.1875 Z M 430.359375 202.324219 C 430.359375 202.324219 435.316406 214.601562 449.703125 213.902344 C 451.921875 209.847656 453.140625 207.117188 453.140625 207.117188 C 443.277344 208.363281 430.359375 202.324219 430.359375 202.324219 Z M 620.414062 254.292969 L 619.207031 252.132812 C 618.941406 251.664062 618.351562 251.496094 617.878906 251.746094 C 617.410156 252.011719 617.242188 252.605469 617.507812 253.074219 L 618.941406 255.660156 C 619.085938 255.925781 619.363281 256.117188 619.664062 256.152344 C 619.835938 256.179688 636.960938 258.566406 642.410156 272.777344 C 645.570312 280.996094 644.183594 291.308594 638.972656 298.441406 C 635.511719 303.171875 628.914062 308.652344 616.976562 307.929688 C 594.351562 306.566406 593.242188 288.097656 593.207031 287.3125 C 593.183594 286.769531 592.722656 286.371094 592.179688 286.382812 C 591.636719 286.40625 591.226562 286.863281 591.253906 287.394531 C 591.265625 287.601562 592.433594 308.402344 616.855469 309.875 C 617.566406 309.910156 618.265625 309.933594 618.964844 309.933594 C 628.023438 309.933594 635.632812 306.300781 640.554688 299.578125 C 646.148438 291.921875 647.632812 280.863281 644.242188 272.050781 C 638.828125 258 623.441406 254.789062 620.414062 254.292969 Z M 591.890625 225.335938 C 592.035156 225.746094 592.410156 226 592.820312 226 C 592.929688 226 593.039062 225.988281 593.132812 225.949219 C 593.640625 225.769531 593.917969 225.214844 593.738281 224.707031 L 590.890625 216.425781 L 601.140625 212.757812 L 605.386719 223.644531 C 605.578125 224.152344 606.144531 224.394531 606.652344 224.199219 C 607.160156 224.007812 607.402344 223.4375 607.207031 222.933594 L 602.613281 211.148438 C 602.417969 210.65625 601.863281 210.414062 601.371094 210.582031 L 589.3125 214.894531 C 588.804688 215.074219 588.539062 215.628906 588.71875 216.136719 Z M 441.40625 125.390625 C 441.019531 125.777344 441.019531 126.394531 441.40625 126.769531 C 441.601562 126.960938 441.851562 127.058594 442.09375 127.058594 C 442.347656 127.058594 442.589844 126.960938 442.78125 126.78125 C 443.035156 126.527344 449.246094 120.574219 458.929688 126.394531 C 459.386719 126.671875 459.992188 126.527344 460.269531 126.054688 C 460.546875 125.597656 460.402344 124.992188 459.929688 124.714844 C 448.90625 118.089844 441.492188 125.320312 441.40625 125.390625 Z M 475.667969 125.320312 C 475.246094 125.644531 475.164062 126.261719 475.5 126.683594 C 475.824219 127.105469 476.441406 127.191406 476.875 126.863281 C 477.042969 126.730469 480.988281 123.773438 484.519531 127.3125 C 484.714844 127.503906 484.96875 127.601562 485.207031 127.601562 C 485.460938 127.601562 485.703125 127.503906 485.894531 127.3125 C 486.28125 126.925781 486.28125 126.308594 485.894531 125.921875 C 482.085938 122.109375 477.539062 123.859375 475.667969 125.320312 Z M 501.429688 142.921875 C 501.429688 151.007812 494.855469 157.574219 486.789062 157.574219 C 481.773438 157.574219 477.332031 155.039062 474.703125 151.175781 C 474.96875 153.386719 475.285156 155.875 475.535156 157.648438 C 475.691406 158.746094 475.414062 159.785156 474.742188 160.628906 C 472.929688 162.910156 468.808594 163.308594 468.335938 163.359375 C 468.3125 163.359375 468.277344 163.359375 468.253906 163.359375 C 467.746094 163.359375 467.324219 162.972656 467.273438 162.464844 C 467.226562 161.921875 467.625 161.449219 468.167969 161.402344 C 469.191406 161.316406 472.113281 160.785156 473.207031 159.410156 C 473.558594 158.976562 473.679688 158.492188 473.59375 157.925781 C 473.027344 153.941406 472.171875 146.480469 472.160156 146.410156 C 472.125 146.121094 472.230469 145.855469 472.414062 145.648438 C 472.28125 144.925781 472.195312 144.164062 472.171875 143.402344 C 470.640625 142.351562 468.167969 143.730469 467.527344 144.128906 C 467.566406 144.539062 467.589844 144.960938 467.589844 145.382812 C 467.589844 154.714844 460.003906 162.308594 450.679688 162.308594 C 441.359375 162.308594 433.773438 154.714844 433.773438 145.382812 C 433.773438 144.140625 433.917969 142.945312 434.171875 141.773438 C 434.148438 141.761719 434.109375 141.773438 434.085938 141.761719 L 426.199219 139.203125 C 423.003906 142.632812 419.554688 145.855469 415.828125 148.703125 C 415.828125 148.703125 412.679688 132.914062 404.261719 131.34375 C 395.855469 129.761719 391.648438 143.972656 395.324219 153.445312 C 399.003906 162.921875 404.261719 168.707031 412.148438 168.707031 C 412.148438 168.707031 417.40625 192.910156 391.128906 198.171875 C 364.851562 203.4375 323.84375 162.390625 362.21875 105.570312 C 400.59375 48.75 451.574219 57.695312 473.65625 75.585938 C 495.738281 93.472656 485.21875 117.679688 485.21875 117.679688 L 455.78125 88.742188 C 455.78125 88.742188 446.507812 116.566406 427.65625 137.644531 L 434.6875 139.925781 C 434.6875 139.925781 434.703125 139.925781 434.703125 139.9375 C 436.980469 133.289062 443.277344 128.484375 450.679688 128.484375 C 458.859375 128.484375 465.695312 134.324219 467.25 142.0625 C 468.421875 141.472656 470.421875 140.710938 472.230469 141.304688 C 473.050781 133.988281 479.261719 128.277344 486.777344 128.277344 C 494.855469 128.265625 501.429688 134.84375 501.429688 142.921875 Z M 465.625 145.394531 C 465.625 137.136719 458.917969 130.425781 450.667969 130.425781 C 442.417969 130.425781 435.714844 137.136719 435.714844 145.394531 C 435.714844 153.652344 442.417969 160.363281 450.667969 160.363281 C 458.917969 160.363281 465.625 153.640625 465.625 145.394531 Z M 499.464844 142.921875 C 499.464844 135.917969 493.769531 130.222656 486.777344 130.222656 C 479.78125 130.222656 474.089844 135.917969 474.089844 142.921875 C 474.089844 149.921875 479.78125 155.621094 486.777344 155.621094 C 493.769531 155.621094 499.464844 149.921875 499.464844 142.921875 Z M 468.289062 172.929688 C 459.292969 175.320312 453.742188 168.65625 453.515625 168.378906 C 453.175781 167.957031 452.5625 167.898438 452.140625 168.234375 C 451.71875 168.574219 451.65625 169.1875 451.996094 169.613281 C 452.210938 169.890625 456.78125 175.40625 464.429688 175.40625 C 465.792969 175.40625 467.25 175.238281 468.796875 174.828125 C 469.3125 174.695312 469.628906 174.148438 469.496094 173.632812 C 469.335938 173.113281 468.808594 172.796875 468.289062 172.929688 Z M 432.480469 210.632812 C 431.046875 209.980469 429.878906 209.957031 428.914062 210.546875 C 427.199219 211.609375 426.429688 214.542969 426.222656 220.6875 C 425.945312 228.992188 417.140625 246.484375 417.046875 246.664062 C 416.804688 247.148438 416.996094 247.738281 417.480469 247.980469 C 417.625 248.054688 417.769531 248.089844 417.925781 248.089844 C 418.289062 248.089844 418.625 247.898438 418.792969 247.558594 C 419.167969 246.824219 427.886719 229.5 428.175781 220.757812 C 428.34375 215.714844 428.9375 212.839844 429.949219 212.226562 C 430.082031 212.140625 430.492188 211.886719 431.675781 212.429688 C 433.242188 213.273438 434.832031 225.082031 435.339844 235.597656 C 435.363281 236.140625 435.824219 236.550781 436.367188 236.523438 C 436.910156 236.5 437.316406 236.042969 437.292969 235.5 C 436.96875 228.507812 435.824219 212.152344 432.480469 210.632812 Z M 457.398438 237.320312 C 457.207031 236.816406 456.652344 236.5625 456.144531 236.753906 L 451.550781 238.480469 C 451.042969 238.675781 450.789062 239.230469 450.980469 239.734375 C 451.128906 240.132812 451.5 240.375 451.898438 240.375 C 452.007812 240.375 452.128906 240.351562 452.238281 240.316406 L 456.832031 238.589844 C 457.324219 238.382812 457.578125 237.828125 457.398438 237.320312 Z M 458.785156 246.738281 C 458.582031 246.230469 458.011719 245.988281 457.519531 246.195312 L 453.828125 247.679688 C 453.320312 247.886719 453.082031 248.453125 453.285156 248.945312 C 453.441406 249.332031 453.804688 249.5625 454.191406 249.5625 C 454.3125 249.5625 454.429688 249.539062 454.550781 249.492188 L 458.242188 248.003906 C 458.738281 247.800781 458.976562 247.234375 458.785156 246.738281 Z M 458.023438 256.710938 L 455.527344 257.722656 C 455.035156 257.929688 454.792969 258.496094 454.984375 259.003906 C 455.144531 259.390625 455.503906 259.617188 455.890625 259.617188 C 456.011719 259.617188 456.132812 259.59375 456.253906 259.546875 L 458.75 258.53125 C 459.242188 258.328125 459.484375 257.757812 459.292969 257.253906 C 459.097656 256.757812 458.53125 256.503906 458.023438 256.710938 Z M 486.523438 298.1875 C 485.992188 298.078125 485.472656 298.417969 485.367188 298.949219 L 474.171875 353.535156 C 474.066406 354.066406 474.402344 354.585938 474.933594 354.695312 C 474.992188 354.707031 475.066406 354.71875 475.125 354.71875 C 475.585938 354.71875 475.984375 354.40625 476.078125 353.933594 L 487.269531 299.347656 C 487.390625 298.816406 487.054688 298.296875 486.523438 298.1875 Z M 485.207031 284.378906 C 485.234375 284.378906 485.257812 284.378906 485.28125 284.378906 C 485.824219 284.339844 486.222656 283.871094 486.183594 283.339844 L 483.582031 245.640625 C 483.542969 245.097656 483.074219 244.6875 482.542969 244.734375 C 482 244.769531 481.601562 245.242188 481.640625 245.773438 L 484.242188 283.472656 C 484.269531 283.980469 484.691406 284.378906 485.207031 284.378906 Z M 327.164062 286.03125 C 327.222656 286.042969 327.269531 286.042969 327.320312 286.042969 C 327.789062 286.042969 328.199219 285.707031 328.285156 285.222656 C 333.324219 254.910156 340.921875 244.964844 341.007812 244.867188 C 341.34375 244.445312 341.273438 243.828125 340.851562 243.492188 C 340.429688 243.152344 339.8125 243.226562 339.476562 243.648438 C 339.148438 244.058594 331.503906 253.96875 326.367188 284.898438 C 326.269531 285.441406 326.632812 285.945312 327.164062 286.03125 Z M 610.65625 403.503906 C 610.148438 403.308594 609.582031 403.5625 609.390625 404.070312 L 604.917969 415.707031 C 598.65625 421.777344 584.726562 434.730469 571.628906 443.023438 C 587.105469 437.808594 602.417969 432.835938 602.417969 432.835938 L 608.316406 412.351562 C 608.316406 412.351562 608.304688 412.363281 608.304688 412.363281 L 611.222656 404.78125 C 611.40625 404.261719 611.164062 403.695312 610.65625 403.503906 Z M 540.855469 390.140625 C 540.335938 389.980469 539.792969 390.273438 539.636719 390.789062 L 535.246094 405.179688 C 535.089844 405.699219 535.378906 406.242188 535.898438 406.398438 C 535.992188 406.421875 536.089844 406.4375 536.1875 406.4375 C 536.609375 406.4375 536.996094 406.171875 537.125 405.746094 L 541.515625 391.359375 C 541.660156 390.851562 541.371094 390.296875 540.855469 390.140625 Z M 756.339844 272.644531 C 755.917969 272.980469 755.847656 273.597656 756.183594 274.019531 C 756.378906 274.261719 756.667969 274.382812 756.945312 274.382812 C 757.160156 274.382812 757.378906 274.308594 757.558594 274.164062 C 776.132812 259.292969 775.277344 237.792969 775.277344 237.574219 C 775.25 237.03125 774.78125 236.632812 774.25 236.644531 C 773.707031 236.671875 773.296875 237.128906 773.324219 237.671875 C 773.335938 237.878906 774.140625 258.386719 756.339844 272.644531 Z M 283.359375 308.652344 C 283.359375 308.652344 270.746094 293.394531 251.292969 292.863281 C 231.839844 292.332031 211.867188 292.863281 211.867188 292.863281 L 283.6875 312.070312 L 358 291.296875 C 358 291.296875 331.191406 292.34375 312.796875 292.875 C 294.40625 293.40625 283.359375 308.652344 283.359375 308.652344 Z M 539.707031 268.695312 L 504.117188 278.667969 L 540.382812 277.085938 Z M 720.582031 227.992188 C 720.835938 227.871094 745.570312 216.269531 766.4375 228.992188 C 766.59375 229.089844 766.773438 229.136719 766.941406 229.136719 C 767.269531 229.136719 767.59375 228.96875 767.773438 228.667969 C 768.050781 228.207031 767.90625 227.605469 767.449219 227.328125 C 745.703125 214.046875 719.992188 226.105469 719.738281 226.226562 C 719.257812 226.457031 719.050781 227.050781 719.28125 227.53125 C 719.511719 228.015625 720.089844 228.21875 720.582031 227.992188 Z M 720.582031 227.992188 " fill-opacity="1" fill-rule="nonzero"/></svg>